<mxfile host="Electron" modified="2023-10-01T19:42:21.229Z" agent="Mozilla/5.0 (Macintosh; Intel Mac OS X 10_15_7) AppleWebKit/537.36 (KHTML, like Gecko) draw.io/22.0.0 Chrome/114.0.5735.289 Electron/25.8.3 Safari/537.36" etag="W1oYkCl9x3dRexy0onyP" version="22.0.0" type="device">
  <diagram name="Page-1" id="rv5F3c6Slozh-x9Luo1N">
    <mxGraphModel dx="1208" dy="721" grid="1" gridSize="10" guides="1" tooltips="1" connect="1" arrows="1" fold="1" page="1" pageScale="1" pageWidth="850" pageHeight="1100" math="0" shadow="0">
      <root>
        <mxCell id="0" />
        <mxCell id="1" parent="0" />
        <mxCell id="SVgbdoyVZCqmGiIOOpgV-2" value="" style="group" parent="1" vertex="1" connectable="0">
          <mxGeometry x="220" y="370" width="760" height="220" as="geometry" />
        </mxCell>
        <mxCell id="ulP-s_4zBE7rIFDbzlDe-29" value="" style="rounded=0;whiteSpace=wrap;html=1;fillColor=none;strokeColor=#C925D1;" parent="SVgbdoyVZCqmGiIOOpgV-2" vertex="1">
          <mxGeometry width="760" height="220" as="geometry" />
        </mxCell>
        <mxCell id="ulP-s_4zBE7rIFDbzlDe-30" value="&lt;font style=&quot;font-size: 12px;&quot; color=&quot;#c925d1&quot;&gt;AWS CodePipeline&lt;/font&gt;" style="text;html=1;strokeColor=none;fillColor=none;align=center;verticalAlign=middle;whiteSpace=wrap;rounded=0;container=0;" parent="SVgbdoyVZCqmGiIOOpgV-2" vertex="1">
          <mxGeometry x="20" width="140" height="30" as="geometry" />
        </mxCell>
        <mxCell id="ulP-s_4zBE7rIFDbzlDe-28" value="" style="sketch=0;points=[[0,0,0],[0.25,0,0],[0.5,0,0],[0.75,0,0],[1,0,0],[0,1,0],[0.25,1,0],[0.5,1,0],[0.75,1,0],[1,1,0],[0,0.25,0],[0,0.5,0],[0,0.75,0],[1,0.25,0],[1,0.5,0],[1,0.75,0]];outlineConnect=0;fontColor=#232F3E;fillColor=#C925D1;strokeColor=#ffffff;dashed=0;verticalLabelPosition=bottom;verticalAlign=top;align=center;html=1;fontSize=12;fontStyle=0;aspect=fixed;shape=mxgraph.aws4.resourceIcon;resIcon=mxgraph.aws4.codepipeline;" parent="SVgbdoyVZCqmGiIOOpgV-2" vertex="1">
          <mxGeometry width="30" height="30" as="geometry" />
        </mxCell>
        <mxCell id="SVgbdoyVZCqmGiIOOpgV-7" value="CodePipeline&#xa;IAM role" style="shape=image;verticalLabelPosition=bottom;verticalAlign=top;imageAspect=0;aspect=fixed;image=data:image/svg+xml,PD94bWwgdmVyc2lvbj0iMS4wIiBlbmNvZGluZz0iVVRGLTgiPz4KPHN2ZyB3aWR0aD0iNDhweCIgaGVpZ2h0PSI0OHB4IiB2aWV3Qm94PSIwIDAgNDggNDgiIHZlcnNpb249IjEuMSIgeG1sbnM9Imh0dHA6Ly93d3cudzMub3JnLzIwMDAvc3ZnIiB4bWxuczp4bGluaz0iaHR0cDovL3d3dy53My5vcmcvMTk5OS94bGluayI+CiAgICA8dGl0bGU+SWNvbi1SZXNvdXJjZS9TZWN1cml0eS1JZGVudGl0eS1hbmQtQ29tcGxpYW5jZS9SZXNfQVdTLUlkZW50aXR5LUFjY2Vzcy1NYW5hZ2VtZW50X1JvbGVfNDg8L3RpdGxlPgogICAgPGcgaWQ9Ikljb24tUmVzb3VyY2UvU2VjdXJpdHktSWRlbnRpdHktYW5kLUNvbXBsaWFuY2UvUmVzX0FXUy1JZGVudGl0eS1BY2Nlc3MtTWFuYWdlbWVudF9Sb2xlXzQ4IiBzdHJva2U9Im5vbmUiIHN0cm9rZS13aWR0aD0iMSIgZmlsbD0ibm9uZSIgZmlsbC1ydWxlPSJldmVub2RkIj4KICAgICAgICA8cGF0aCBkPSJNNDQuMDgyNywzMi41ODEgQzQzLjkyNjcsMzIuNTkyIDQzLjc2OTcsMzIuNjA0IDQzLjYyMDcsMzIuNjE5IEM0My4wOTg3LDMyLjY2MiA0Mi41NTI3LDMyLjcxNCA0Mi4wMDA3LDMyLjc3MiBMNDEuODMyNywzMi43OSBDNDAuMDY3NywzMi45NzIgMzguMDY5NywzMy4xNzcgMzcuMTE4NywzMy4wNDcgQzM2LjUyNDcsMzIuOTYyIDM1LjQzMDcsMzIuNDg3IDM0LjI3MDcsMzEuOTg0IEMzMi4zMDQ3LDMxLjEzMiAyOS44NTY3LDMwLjA3IDI3LjY0MzcsMjkuOSBDMjQuNTk3NywyOS42NjYgMTkuMzM0NywzMC4yNCAxNS45NDA3LDMxLjgzMSBDMTMuOTc4NywzMS43NDMgMTIuMTU4NywzMS4yMTUgMTAuNzQ0NywzMC4zNDMgQzEwLjczODcsMzAuMDcxIDEwLjczMjcsMjkuNzk5IDEwLjczMjcsMjkuNjk0IEMxMC43MzI3LDI1LjU1OCAxMi42NzA3LDIxLjY3OSAxNi4wNTI3LDE5LjA0NCBDMTguMzQ5NywxNy43MDEgMjAuOTk2NywxNi45OTIgMjMuNzEyNywxNi45OTIgQzI5LjgzMzcsMTYuOTkyIDM1LjI2NTcsMjAuNjA5IDM3LjM4NDcsMjUuOTM0IEwzNi41NzE3LDI1LjkzNCBDMzUuNzU3NywyNS45MzQgMzUuMDc1NywyNi41MSAzNC45MDg3LDI3LjI3NCBDMzQuNzcwNywyNy4yMjIgMzQuNjQ0NywyNy4xNzUgMzQuNDk2NywyNy4xMTggQzMyLjQ2NzcsMjYuMzM1IDI5LjY4MzcsMjUuMjY0IDI2LjQ2NTcsMjUuNDU1IEMyMS43NjA3LDI1LjczMSAxOS40NDU3LDI2LjAxNSAxNy42MjI3LDI2LjUzNSBMMTguMTcxNywyOC40NTkgQzE5LjgzOTcsMjcuOTgyIDIyLjAzOTcsMjcuNzE5IDI2LjU4MjcsMjcuNDUxIEMyOS4zNjY3LDI3LjI5MyAzMS45MTk3LDI4LjI2OSAzMy43NzY3LDI4Ljk4NCBDMzQuMTcxNywyOS4xMzcgMzQuNTI4NywyOS4yNyAzNC44Njc3LDI5LjM5MSBMMzQuODY3NywyOS41OTYgQzM0Ljg2NzcsMzAuNTM1IDM1LjYzMjcsMzEuMyAzNi41NzE3LDMxLjMgTDQwLjIxODcsMzEuMyBDNDEuMTU1NywzMS4zIDQxLjkxOTcsMzAuNTM4IDQxLjkyMjcsMjkuNjAyIEw0Mi4yNzY3LDI5LjU3IEM0Mi44Njk3LDI5LjUxNyA0My40MTQ3LDI5LjQ2NCA0My44NzE3LDI5LjQxOSBMNDQuMDgyNywyOS4zOTggTDQ0LjA4MjcsMzIuNTgxIFogTTkuNzk4NywzNC4yNDkgQzcuMTQ4NywzNC42MTIgNS4wNTY3LDM0LjI4OCA0LjE5MDcsMzMuNzUzIEM0LjcxNTcsMzMuMzgyIDUuOTAwNywzMi44NjMgNi43MzQ3LDMyLjQ5OSBDNy40NTY3LDMyLjE4NCA4LjE4NzcsMzEuODUxIDguODk0NywzMS40OTUgQzEwLjA0ODcsMzIuMzc0IDExLjQ3NzcsMzMuMDMzIDEzLjA1OTcsMzMuNDI2IEMxMi4xNDQ3LDMzLjc5NCAxMS4wMTE3LDM0LjA4NCA5Ljc5ODcsMzQuMjQ5IEw5Ljc5ODcsMzQuMjQ5IFogTTM2Ljg2NzcsMjkuMyBMMzkuOTIyNywyOS4zIEwzOS45MjI3LDI3LjkzNCBMMzYuODY3NywyNy45MzQgTDM2Ljg2NzcsMjkuMyBaIE0yNi41ODU3LDEzIEMzNC45NTM3LDEzIDQxLjk4MTcsMTkuMjk1IDQzLjAxNjcsMjcuNDkyIEM0Mi43Mjg3LDI3LjUyIDQyLjQyNDcsMjcuNTQ5IDQyLjEwMzcsMjcuNTc4IEw0MS45MTg3LDI3LjU5NCBDNDEuODk0NywyNi42NzYgNDEuMTQzNywyNS45MzQgNDAuMjE4NywyNS45MzQgTDM5LjUwNzcsMjUuOTM0IEMzNy4zMDY3LDE5LjQ1NyAzMC45MzE3LDE0Ljk5MiAyMy43MTI3LDE0Ljk5MiBDMjEuMDM4NywxNC45OTIgMTguNDIyNywxNS42MDQgMTYuMDcxNywxNi43NjcgQzE2LjA4ODcsMTYuNzUzIDE2LjEwMjcsMTYuNzM4IDE2LjExNzcsMTYuNzI1IEMxOS4wNTg3LDE0LjMyMyAyMi43NzU3LDEzIDI2LjU4NTcsMTMgTDI2LjU4NTcsMTMgWiBNNDUuNTI2NywyNy43OTQgQzQ1LjM4MTcsMjcuNjYzIDQ1LjIxMDcsMjcuNTY4IDQ1LjAyODcsMjcuNDk2IEM0My45ODI3LDE4LjE4NSAzNi4wNDk3LDExIDI2LjU4NTcsMTEgQzIyLjMxNjcsMTEgMTguMTQ5NywxMi40ODMgMTQuODUzNywxNS4xNzUgQzEwLjUwMDcsMTguNzE5IDguMDA0NywyMy45NyA4LjAwNDcsMjkuNTgxIEM4LjAwNDcsMjkuNjIyIDguMDA3NywyOS42NjMgOC4wMDc3LDI5LjcwNCBDNy4zNDA3LDMwLjAzOSA2LjYzNTcsMzAuMzU5IDUuOTM0NywzMC42NjYgQzMuNzk4NywzMS42IDIuMjU1NywzMi4yNzQgMi4wMjU3LDMzLjQ5MiBDMS45Njc3LDMzLjgwMSAxLjk1NzcsMzQuNDA2IDIuNTQ1NywzNC45OTQgQzMuNTgyNywzNi4wMzEgNS41NzI3LDM2LjQwMyA3LjU5NDcsMzYuNDAzIEM4LjQzNjcsMzYuNDAzIDkuMjgyNywzNi4zMzkgMTAuMDY4NywzNi4yMzEgQzExLjQwNzcsMzYuMDQ5IDEzLjkwNzcsMzUuNTU4IDE1LjYwNDcsMzQuMzE2IEMxOC4yODI3LDMyLjM3NSAyNC4zMzc3LDMxLjY0OSAyNy40OTA3LDMxLjg5NCBDMjkuMzY5NywzMi4wMzkgMzEuNjQ1NywzMy4wMjYgMzMuNDc1NywzMy44MTkgQzM0Ljg3MTcsMzQuNDI2IDM1Ljk3NTcsMzQuOTA0IDM2Ljg0MTcsMzUuMDI3IEMzOC4wMzI3LDM1LjE5IDM5Ljk3NzcsMzQuOTkgNDIuMDM2NywzNC43NzkgTDQyLjIwOTcsMzQuNzYyIEM0Mi43NDc3LDM0LjcwNCA0My4yNzc3LDM0LjY1NCA0My44MDE3LDM0LjYxMSBDNDQuMDE2NywzNC41OSA0NC4yMjk3LDM0LjU3NSA0NC41MTM3LDM0LjU1NSBDNDUuMzkzNywzNC40OTMgNDYuMDgyNywzMy43NTUgNDYuMDgyNywzMi44NzUgTDQ2LjA4MjcsMjkuMDQ2IEM0Ni4wODI3LDI4LjU2OCA0NS44ODA3LDI4LjExMiA0NS41MjY3LDI3Ljc5NCBMNDUuNTI2NywyNy43OTQgWiIgaWQ9IkFXUy1JZGVudGl0eS1hbmQtQWNjZXNzLU1hbmFnZW1lbnRfUm9sZV9SZXNvdXJjZS1JY29uX2xpZ2h0LWJnIiBmaWxsPSIjREQzNDRDIj48L3BhdGg+CiAgICA8L2c+Cjwvc3ZnPg==;fontSize=10;" parent="SVgbdoyVZCqmGiIOOpgV-2" vertex="1">
          <mxGeometry x="140" y="140" width="40" height="40" as="geometry" />
        </mxCell>
        <mxCell id="ulP-s_4zBE7rIFDbzlDe-75" value="&lt;font size=&quot;1&quot; color=&quot;#000000&quot;&gt;&lt;b style=&quot;font-size: 14px;&quot;&gt;5&lt;/b&gt;&lt;/font&gt;" style="ellipse;whiteSpace=wrap;html=1;aspect=fixed;fillStyle=solid;fillColor=#B3B3B3;strokeColor=#36393d;" parent="SVgbdoyVZCqmGiIOOpgV-2" vertex="1">
          <mxGeometry x="360" y="20" width="20" height="20" as="geometry" />
        </mxCell>
        <mxCell id="ulP-s_4zBE7rIFDbzlDe-79" value="&lt;font color=&quot;#888888&quot;&gt;AWS Cloud&lt;/font&gt;" style="points=[[0,0],[0.25,0],[0.5,0],[0.75,0],[1,0],[1,0.25],[1,0.5],[1,0.75],[1,1],[0.75,1],[0.5,1],[0.25,1],[0,1],[0,0.75],[0,0.5],[0,0.25]];outlineConnect=0;gradientColor=none;html=1;whiteSpace=wrap;fontSize=12;fontStyle=0;container=0;pointerEvents=0;collapsible=0;recursiveResize=0;shape=mxgraph.aws4.group;grIcon=mxgraph.aws4.group_aws_cloud_alt;strokeColor=#232F3E;fillColor=none;verticalAlign=top;align=left;spacingLeft=30;fontColor=#F0F0F0;dashed=0;" parent="1" vertex="1">
          <mxGeometry x="180" y="180" width="850" height="640" as="geometry" />
        </mxCell>
        <mxCell id="ulP-s_4zBE7rIFDbzlDe-68" style="edgeStyle=elbowEdgeStyle;rounded=0;orthogonalLoop=1;jettySize=auto;html=1;startSize=6;startArrow=none;startFill=0;sourcePerimeterSpacing=20;elbow=vertical;entryX=0.515;entryY=0.022;entryDx=0;entryDy=0;entryPerimeter=0;" parent="1" source="ulP-s_4zBE7rIFDbzlDe-14" target="ulP-s_4zBE7rIFDbzlDe-13" edge="1">
          <mxGeometry relative="1" as="geometry">
            <Array as="points">
              <mxPoint x="810" y="380" />
            </Array>
            <mxPoint x="752" y="430" as="targetPoint" />
          </mxGeometry>
        </mxCell>
        <mxCell id="ulP-s_4zBE7rIFDbzlDe-14" value="Approver" style="pointerEvents=1;shadow=0;dashed=0;html=1;strokeColor=none;fillColor=#505050;labelPosition=center;verticalLabelPosition=bottom;verticalAlign=top;outlineConnect=0;align=center;shape=mxgraph.office.users.approver;" parent="1" vertex="1">
          <mxGeometry x="1140" y="274.5" width="59" height="55" as="geometry" />
        </mxCell>
        <mxCell id="ulP-s_4zBE7rIFDbzlDe-60" style="edgeStyle=orthogonalEdgeStyle;rounded=0;orthogonalLoop=1;jettySize=auto;html=1;entryX=0;entryY=0.5;entryDx=0;entryDy=0;" parent="1" source="ulP-s_4zBE7rIFDbzlDe-16" target="ulP-s_4zBE7rIFDbzlDe-3" edge="1">
          <mxGeometry relative="1" as="geometry" />
        </mxCell>
        <mxCell id="ulP-s_4zBE7rIFDbzlDe-61" value="Commit&lt;br&gt;Terraform&lt;br&gt;templates" style="edgeLabel;html=1;align=center;verticalAlign=middle;resizable=0;points=[];labelBackgroundColor=none;" parent="ulP-s_4zBE7rIFDbzlDe-60" vertex="1" connectable="0">
          <mxGeometry x="-0.3" y="-2" relative="1" as="geometry">
            <mxPoint x="-7" y="23" as="offset" />
          </mxGeometry>
        </mxCell>
        <mxCell id="ulP-s_4zBE7rIFDbzlDe-16" value="User" style="pointerEvents=1;shadow=0;dashed=0;html=1;strokeColor=none;fillColor=#505050;labelPosition=center;verticalLabelPosition=bottom;verticalAlign=top;outlineConnect=0;align=center;shape=mxgraph.office.users.user;" parent="1" vertex="1">
          <mxGeometry x="50" y="457" width="46" height="50" as="geometry" />
        </mxCell>
        <mxCell id="ulP-s_4zBE7rIFDbzlDe-20" style="edgeStyle=orthogonalEdgeStyle;rounded=0;orthogonalLoop=1;jettySize=auto;html=1;" parent="1" source="ulP-s_4zBE7rIFDbzlDe-3" target="ulP-s_4zBE7rIFDbzlDe-2" edge="1">
          <mxGeometry relative="1" as="geometry" />
        </mxCell>
        <mxCell id="ulP-s_4zBE7rIFDbzlDe-21" style="edgeStyle=orthogonalEdgeStyle;rounded=0;orthogonalLoop=1;jettySize=auto;html=1;" parent="1" source="ulP-s_4zBE7rIFDbzlDe-2" target="ulP-s_4zBE7rIFDbzlDe-9" edge="1">
          <mxGeometry relative="1" as="geometry" />
        </mxCell>
        <mxCell id="ulP-s_4zBE7rIFDbzlDe-22" style="rounded=0;orthogonalLoop=1;jettySize=auto;html=1;" parent="1" source="ulP-s_4zBE7rIFDbzlDe-9" target="eRknMqQtl_QedWEwPYlO-18" edge="1">
          <mxGeometry relative="1" as="geometry" />
        </mxCell>
        <mxCell id="ulP-s_4zBE7rIFDbzlDe-23" style="edgeStyle=orthogonalEdgeStyle;rounded=0;orthogonalLoop=1;jettySize=auto;html=1;" parent="1" source="ulP-s_4zBE7rIFDbzlDe-12" target="ulP-s_4zBE7rIFDbzlDe-18" edge="1">
          <mxGeometry relative="1" as="geometry" />
        </mxCell>
        <mxCell id="ulP-s_4zBE7rIFDbzlDe-37" value="Amazon DynamoDB&#xa;Terraform state lock" style="shape=image;verticalLabelPosition=bottom;verticalAlign=top;imageAspect=0;aspect=fixed;image=data:image/svg+xml,PD94bWwgdmVyc2lvbj0iMS4wIiBlbmNvZGluZz0iVVRGLTgiPz4KPHN2ZyB3aWR0aD0iODBweCIgaGVpZ2h0PSI4MHB4IiB2aWV3Qm94PSIwIDAgODAgODAiIHZlcnNpb249IjEuMSIgeG1sbnM9Imh0dHA6Ly93d3cudzMub3JnLzIwMDAvc3ZnIiB4bWxuczp4bGluaz0iaHR0cDovL3d3dy53My5vcmcvMTk5OS94bGluayI+CiAgICA8dGl0bGU+SWNvbi1BcmNoaXRlY3R1cmUvNjQvQXJjaF9BbWF6b24tRHluYW1vREJfNjQ8L3RpdGxlPgogICAgPGcgaWQ9Ikljb24tQXJjaGl0ZWN0dXJlLzY0L0FyY2hfQW1hem9uLUR5bmFtb0RCXzY0IiBzdHJva2U9Im5vbmUiIHN0cm9rZS13aWR0aD0iMSIgZmlsbD0ibm9uZSIgZmlsbC1ydWxlPSJldmVub2RkIj4KICAgICAgICA8ZyBpZD0iSWNvbi1BcmNoaXRlY3R1cmUtQkcvNjQvRGF0YWJhc2UiIGZpbGw9IiNDOTI1RDEiPgogICAgICAgICAgICA8cmVjdCBpZD0iUmVjdGFuZ2xlIiB4PSIwIiB5PSIwIiB3aWR0aD0iODAiIGhlaWdodD0iODAiPjwvcmVjdD4KICAgICAgICA8L2c+CiAgICAgICAgPHBhdGggZD0iTTUyLjA4NTk1MjUsNTQuODUwMjUwNiBDNDguNzQ3OTU2OSw1Ny41NDkwMzM4IDQxLjc0NDk2NjEsNTguOTc1MjkyNyAzNS4wNDM5NzQ5LDU4Ljk3NTI5MjcgQzI4LjM0MTk4MzgsNTguOTc1MjkyNyAyMS4zMzY5OTMsNTcuNTQ4MDQyIDE3Ljk5OTk5NzQsNTQuODQ5MjU4OCBMMTcuOTk5OTk3NCw2MC4yODQ1MTUgTDE4LjAwMDk5NzQsNjAuMjg0NTE1IEMxOC4wMDA5OTc0LDYyLjk5NTIwMDIgMjQuOTk5OTk3NCw2Ni4wMTYzMjk5IDM1LjA0Mzk3NDksNjYuMDE2MzI5OSBDNDUuMDc5OTYxNyw2Ni4wMTYzMjk5IDUyLjA3NDk1MjUsNjIuOTk5MTY3NiA1Mi4wODU5NTI1LDYwLjI5MDQ2NiBMNTIuMDg1OTUyNSw1NC44NTAyNTA2IFogTTUyLjA4Njk1MjUsNDQuNTIyMjcyIEw1NC4wODY5NDk5LDQ0LjUxMTM2MTggTDU0LjA4Njk0OTksNDQuNTIyMjcyIEM1NC4wODY5NDk5LDQ1LjczMDMyNzEgNTMuNDgxOTUwNyw0Ni44NTgwNDM2IDUyLjMwMzk1MjIsNDcuODkwNTQzOSBDNTMuNzMxOTUwMyw0OS4xNDcxOTkgNTQuMDg2OTQ5OSw1MC4zODAwNDk5IDU0LjA4Njk0OTksNTEuMjU3ODI0IEM1NC4wODY5NDk5LDUxLjI2Mzc3NSA1NC4wODU5NDk5LDUxLjI2ODczNDIgNTQuMDg1OTQ5OSw1MS4yNzQ2ODUyIEw1NC4wODU5NDk5LDYwLjI4NDUxNSBMNTQuMDg2OTQ5OSw2MC4yODQ1MTUgQzU0LjA4Njk0OTksNjUuMjk1MjY1OCA0NC4yNzQ5NjI4LDY4IDM1LjA0Mzk3NDksNjggQzI1LjgzNDk4NzEsNjggMTYuMDQ5OTk5OSw2NS4zMDcxNjc4IDE2LjAwMyw2MC4zMTkyMjkyIEMxNi4wMDMsNjAuMzE0MjcgMTYsNjAuMzA5MzEwOSAxNiw2MC4zMDQzNTE3IEwxNiw1MS4yNTQ4NDg1IEMxNiw1MS4yNTI4NjQ4IDE2LjAwMiw1MS4yNDk4ODkzIDE2LjAwMiw1MS4yNDY5MTM4IEMxNi4wMDUsNTAuMzY5MTM5OCAxNi4zNjA5OTk1LDQ5LjE0MTI0NzkgMTcuNzg2OTk3Niw0Ny44ODc1Njg0IEMxNi4zNjk5OTk1LDQ2LjYzNTg3MjUgMTYuMDEsNDUuNDE0OTIzNiAxNi4wMDEsNDQuNTQ0MDkyNCBMMTYuMDAyLDQ0LjU0NDA5MjQgQzE2LjAwMiw0NC41NDAxMjUgMTYsNDQuNTM3MTQ5NSAxNiw0NC41MzMxODIyIEwxNiwzNS40ODM2NzkgQzE2LDM1LjQ4MDcwMzUgMTYuMDAyLDM1LjQ3NzcyOCAxNi4wMDIsMzUuNDc0NzUyNSBDMTYuMDA1LDM0LjU5Njk3ODQgMTYuMzYxOTk5NSwzMy4zNjkwODY2IDE3Ljc4Nzk5NzYsMzIuMTE3MzkwOCBDMTYuMzY5OTk5NSwzMC44NjQ3MDMxIDE2LjAxLDI5LjY0Mjc2MjMgMTYuMDAxLDI4Ljc3MjkyMjkgTDE2LjAwMiwyOC43NzI5MjI5IEMxNi4wMDIsMjguNzY4OTU1NiAxNiwyOC43NjQ5ODgyIDE2LDI4Ljc2MTAyMDkgTDE2LDE5LjcxMjUwOTUgQzE2LDE5LjcwOTUzNCAxNi4wMDIsMTkuNzA2NTU4NSAxNi4wMDIsMTkuNzAzNTgzIEMxNi4wMTksMTQuNjk5Nzc1MSAyNS44MTk5ODcxLDEyIDM1LjA0Mzk3NDksMTIgQzQwLjI1NDk2ODEsMTIgNDUuMjYwOTYxNSwxMi44MjgxODIzIDQ4Ljc3Nzk1NjksMTQuMjcyMjk0MSBMNDguMDEyOTU3OSwxNi4xMDUyMDU0IEM0NC43Mjk5NjIyLDE0Ljc1NzMwMTUgNDAuMDAyOTY4NCwxMy45ODM2NzAxIDM1LjA0Mzk3NDksMTMuOTgzNjcwMSBDMjQuOTk5OTg4MiwxMy45ODM2NzAxIDE4LjAwMDk5NzQsMTcuMDA0Nzk5OCAxOC4wMDA5OTc0LDE5LjcxNzQ2ODcgQzE4LjAwMDk5NzQsMjIuNDI5MTQ1OCAyNC45OTk5ODgyLDI1LjQ1MDI3NTQgMzUuMDQzOTc0OSwyNS40NTAyNzU0IEMzNS4zMTQ5NzQ2LDI1LjQ1MzI1MDkgMzUuNTc5OTc0MiwyNS40NTAyNzU0IDM1Ljg0Nzk3MzksMjUuNDQwMzU3MSBMMzUuOTMxOTczOCwyNy40MjIwNDM1IEMzNS42MzU5NzQyLDI3LjQzMzk0NTYgMzUuMzM5OTc0NSwyNy40MzM5NDU2IDM1LjA0Mzk3NDksMjcuNDMzOTQ1NiBDMjguMzQxOTgzOCwyNy40MzM5NDU2IDIxLjMzNjk5MywyNi4wMDY2OTQ5IDE4LDIzLjMwNzkxMTcgTDE4LDI4Ljc0MDE5MjMgTDE4LjAwMDk5NzQsMjguNzQwMTkyMyBMMTguMDAwOTk3NCwyOC43NjMwMDQ2IEMxOC4wMTA5OTc0LDI5LjgwMzQzOTUgMTkuMDc3OTk1OSwzMC43MTE5NjA1IDE5Ljk3MTk5NDgsMzEuMjg5MjA4NSBDMjIuNjYxOTkxMiwzMy4wMDQwOTEzIDI3LjQ4MTk4NDksMzQuMTc1NDQ4NSAzMi44NTY5Nzc4LDM0LjQxODQ0ODEgTDMyLjc2NTk3NzksMzYuNDAwMTM0NiBDMjcuMzIwOTg1MSwzNi4xNTMxNjc3IDIyLjU1Mjk5MTQsMzUuMDIzNDY3NSAxOS40ODM5OTU0LDMzLjI5MTcyMzUgQzE4LjcyNzk5NjQsMzMuODU3MDY5NSAxOC4wMDA5OTc0LDM0LjYyMTc3NDMgMTguMDAwOTk3NCwzNS40ODg2MzgyIEMxOC4wMDA5OTc0LDM4LjIwMDMxNTMgMjQuOTk5OTg4Miw0MS4yMjE0NDQ5IDM1LjA0Mzk3NDksNDEuMjIxNDQ0OSBDMzYuMDI4OTczNiw0MS4yMjE0NDQ5IDM3LjAwNjk3MjMsNDEuMTg4NzE0MyAzNy45NTE5NzExLDQxLjEyMzI1MzIgTDM4LjA5MDk3MDksNDMuMTAxOTY0MiBDMzcuMTAwOTcyMiw0My4xNzA0MDA4IDM2LjA3NDk3MzYsNDMuMjA1MTE1IDM1LjA0Mzk3NDksNDMuMjA1MTE1IEMyOC4zNDE5ODM4LDQzLjIwNTExNSAyMS4zMzY5OTMsNDEuNzc3ODY0NCAxOCwzOS4wNzkwODExIEwxOCw0NC41MTEzNjE4IEwxOC4wMDA5OTc0LDQ0LjUxMTM2MTggQzE4LjAxMDk5NzQsNDUuNTc0NjA5IDE5LjA3Nzk5NTksNDYuNDgyMTM4MSAxOS45NzE5OTQ4LDQ3LjA2MDM3OCBDMjMuMDQ3OTkwNyw0OS4wMjMyMTk2IDI4LjgyMzk4MzEsNTAuMjQ1MTYwNCAzNS4wNDM5NzQ5LDUwLjI0NTE2MDQgTDM1LjQ4Mzk3NDQsNTAuMjQ1MTYwNCBMMzUuNDgzOTc0NCw1Mi4yMjg4MzA1IEwzNS4wNDM5NzQ5LDUyLjIyODgzMDUgQzI4LjcyNDk4MzIsNTIuMjI4ODMwNSAyMi45ODE5OTA4LDUxLjA1NTQ4OTYgMTkuNDY5OTk1NCw0OS4wNzI4MTEzIEMxOC43MTc5OTY0LDQ5LjYzNzE2NTUgMTguMDAwOTk3NCw1MC4zOTc5MDMgMTguMDAwOTk3NCw1MS4yNTc4MjQgQzE4LjAwMDk5NzQsNTMuOTY5NTAxMSAyNC45OTk5ODgyLDU2Ljk5MTYyMjUgMzUuMDQzOTc0OSw1Ni45OTE2MjI1IEM0NS4wNzk5NjE3LDU2Ljk5MTYyMjUgNTIuMDc0OTUyNSw1My45NzQ0NjAyIDUyLjA4NTk1MjUsNTEuMjY0NzY2OCBMNTIuMDg1OTUyNSw1MS4yNTQ4NDg1IEw1Mi4wODU5NTI1LDUxLjI1Mzg1NjYgQzUyLjA4Mzk1MjUsNTAuMzkxOTUyIDUxLjM2Mzk1MzQsNDkuNjMxMjE0NSA1MC42MDk5NTQ0LDQ5LjA2Njg2MDMgQzUwLjEyMTk1NTEsNDkuMzQzNTgyMyA0OS41OTg5NTU4LDQ5LjYxMDM4NTkgNDkuMDAzOTU2Niw0OS44NTUzNjkyIEw0OC4yMzc5NTc2LDQ4LjAyMjQ1OCBDNDguOTYzOTU2Niw0Ny43MjM5MTU2IDQ5LjU5Mzk1NTgsNDcuNDAxNTY5MiA1MC4xMTA5NTUxLDQ3LjA2MjM2MTYgQzUxLjAxMjk1MzksNDYuNDc0MjAzNCA1Mi4wODY5NTI1LDQ1LjU1NDc3MjMgNTIuMDg2OTUyNSw0NC41MjIyNzIgTDUyLjA4Njk1MjUsNDQuNTIyMjcyIFogTTYwLjY1Mjk0MTIsMzAuMDE2Njg0MSBMNTUuMDQ4OTQ4NiwzMC4wMTY2ODQxIEM1NC43MTc5NDksMzAuMDE2Njg0MSA1NC40MDY5NDk0LDI5Ljg1NDAyMzEgNTQuMjIxOTQ5NywyOS41ODIyNjAzIEM1NC4wMzQ5NDk5LDI5LjMxMDQ5NzUgNTMuOTk2OTUsMjguOTY0MzQ3MSA1NC4xMTg5NDk4LDI4LjY1OTg1MzcgTDU3LjUyNzk0NTMsMjAuMTM4MDA2OCBMNDQuNjE4OTcwMiwyMC4xMzgwMDY4IEwzOC42MTg5NzAyLDMyLjA0MDAyNzYgTDQ1LjAwMDk2MTgsMzIuMDQwMDI3NiBDNDUuMzE5OTYxNCwzMi4wNDAwMjc2IDQ1LjYxOTk2MSwzMi4xOTE3Nzg0IDQ1LjgwODk2MDgsMzIuNDQ2NjggQzQ1Ljk5NTk2MDUsMzIuNzAyNTczNSA0Ni4wNTA5NjA0LDMzLjAzMDg3MDkgNDUuOTUzOTYwNiwzMy4zMzMzODA2IEw0MC4yNTc5NjgxLDUxLjA4OTIxMiBMNjAuNjUyOTQxMiwzMC4wMTY2ODQxIFogTTYzLjcyMTkzNzIsMjkuNzEyMTkwNyBMMzguNzIyOTcwMSw1NS41Mzk1NzYgQzM4LjUyNzk3MDMsNTUuNzM5OTI2NyAzOC4yNjU5NzA3LDU1Ljg0NDA2OTQgMzguMDAwOTcxLDU1Ljg0NDA2OTQgQzM3LjgyNDk3MTMsNTUuODQ0MDY5NCAzNy42NDc5NzE1LDU1Ljc5OTQzNjggMzcuNDg5OTcxNyw1NS43MDUyMTI0IEMzNy4wODk5NzIyLDU1LjQ2OTE1NTcgMzYuOTA2OTcyNSw1NC45OTIwODMgMzcuMDQ3OTcyMyw1NC41NTE3MDgzIEw0My42MzM5NjM2LDM0LjAyMzY5NzggTDM3LjAwMDk3MjQsMzQuMDIzNjk3OCBDMzYuNjUzOTcyOCwzNC4wMjM2OTc4IDM2LjMzMjk3MzIsMzMuODQ2MTU5MyAzNi4xNDk5NzM1LDMzLjU1MzU2NzkgQzM1Ljk2Nzk3MzcsMzMuMjYwOTc2NiAzNS45NTA5NzM3LDMyLjg5NTk4MTMgMzYuMTA2OTczNSwzMi41ODg1MTI0IEw0My4xMDY5NjQzLDE4LjcwMjgyMTQgQzQzLjI3NTk2NDEsMTguMzY2NTg5MyA0My42MjE5NjM2LDE4LjE1NDMzNjYgNDQuMDAwOTYzMSwxOC4xNTQzMzY2IEw1OS4wMDA5NDM0LDE4LjE1NDMzNjYgQzU5LjMzMTk0MywxOC4xNTQzMzY2IDU5LjY0Mjk0MjUsMTguMzE3OTg5NCA1OS44Mjc5NDIzLDE4LjU4ODc2MDQgQzYwLjAxNDk0MjEsMTguODYxNTE1IDYwLjA1Mjk0MiwxOS4yMDY2NzM2IDU5LjkzMDk0MjIsMTkuNTEyMTU4OCBMNTYuNTIxOTQ2NywyOC4wMzMwMTM5IEw2Mi45OTk5MzgxLDI4LjAzMzAxMzkgQzYzLjM5OTkzNzYsMjguMDMzMDEzOSA2My43NjI5MzcxLDI4LjI3MTA1NDQgNjMuOTE5OTM2OSwyOC42MzYwNDk3IEM2NC4wNzY5MzY3LDI5LjAwMjAzNjggNjMuOTk4OTM2OCwyOS40MjU1NTA0IDYzLjcyMTkzNzIsMjkuNzEyMTkwNyBMNjMuNzIxOTM3MiwyOS43MTIxOTA3IFogTTE5LjQ1NDk5NTUsNjAuNjc0MzA2MiBDMjAuODcxOTkzNiw2MS40NzI3MzM0IDIyLjY1NTk5MTIsNjIuMTQ0MjA1NyAyNC43NTY5ODg1LDYyLjY2Nzg5NDcgTDI1LjI0NDk4NzgsNjAuNzQzNzM0NiBDMjMuMzQ1OTkwMyw2MC4yNzA2MjkzIDIxLjY4NTk5MjUsNTkuNjQ5NzQwNSAyMC40NDI5OTQyLDU4Ljk0OTUwNSBMMTkuNDU0OTk1NSw2MC42NzQzMDYyIFogTTI0Ljc1Njk4ODUsNDYuNzk4NTMzNSBMMjUuMjQ0OTg3OCw0NC44NzUzNjUzIEMyMy4zNDU5OTAzLDQ0LjQwMTI2ODEgMjEuNjg1OTkyNSw0My43ODAzNzk0IDIwLjQ0Mjk5NDIsNDMuMDgwMTQzOCBMMTkuNDU0OTk1NSw0NC44MDQ5NDUgQzIwLjg3MTk5MzYsNDUuNjAzMzcyMiAyMi42NTQ5OTEyLDQ2LjI3NDg0NDYgMjQuNzU2OTg4NSw0Ni43OTg1MzM1IEwyNC43NTY5ODg1LDQ2Ljc5ODUzMzUgWiBNMTkuNDU0OTk1NSwyOC45MzU1ODM5IEwyMC40NDI5OTQyLDI3LjIxMDc4MjcgQzIxLjY4Mzk5MjUsMjcuOTExMDE4MiAyMy4zNDQ5OTAzLDI4LjUzMDkxNTEgMjUuMjQ0OTg3OCwyOS4wMDYwMDQxIEwyNC43NTY5ODg1LDMwLjkyOTE3MjMgQzIyLjY1Mjk5MTIsMzAuNDA0NDkxNiAyMC44Njk5OTM2LDI5LjczMzAxOTMgMTkuNDU0OTk1NSwyOC45MzU1ODM5IEwxOS40NTQ5OTU1LDI4LjkzNTU4MzkgWiIgaWQ9IkFtYXpvbi1EeW5hbW9EQl9JY29uXzY0X1NxdWlkIiBmaWxsPSIjRkZGRkZGIj48L3BhdGg+CiAgICA8L2c+Cjwvc3ZnPg==" parent="1" vertex="1">
          <mxGeometry x="720" y="690" width="64" height="64" as="geometry" />
        </mxCell>
        <mxCell id="ulP-s_4zBE7rIFDbzlDe-64" style="edgeStyle=orthogonalEdgeStyle;rounded=0;orthogonalLoop=1;jettySize=auto;html=1;entryX=0.107;entryY=1.024;entryDx=0;entryDy=0;entryPerimeter=0;startArrow=classic;startFill=1;" parent="1" source="ulP-s_4zBE7rIFDbzlDe-38" target="ulP-s_4zBE7rIFDbzlDe-29" edge="1">
          <mxGeometry relative="1" as="geometry" />
        </mxCell>
        <mxCell id="ulP-s_4zBE7rIFDbzlDe-65" value="Input and&lt;br&gt;output&lt;br&gt;artifacts" style="edgeLabel;html=1;align=center;verticalAlign=middle;resizable=0;points=[];labelBackgroundColor=none;" parent="ulP-s_4zBE7rIFDbzlDe-64" vertex="1" connectable="0">
          <mxGeometry x="0.4329" relative="1" as="geometry">
            <mxPoint x="-31" y="25" as="offset" />
          </mxGeometry>
        </mxCell>
        <mxCell id="ulP-s_4zBE7rIFDbzlDe-38" value="Amazon Simple Storage Service&#xa;(Amazon S3) bucket&#xa;Pipeline resources&#xa;" style="shape=image;verticalLabelPosition=bottom;verticalAlign=top;imageAspect=0;aspect=fixed;image=data:image/svg+xml,PD94bWwgdmVyc2lvbj0iMS4wIiBlbmNvZGluZz0iVVRGLTgiPz4KPHN2ZyB3aWR0aD0iODBweCIgaGVpZ2h0PSI4MHB4IiB2aWV3Qm94PSIwIDAgODAgODAiIHZlcnNpb249IjEuMSIgeG1sbnM9Imh0dHA6Ly93d3cudzMub3JnLzIwMDAvc3ZnIiB4bWxuczp4bGluaz0iaHR0cDovL3d3dy53My5vcmcvMTk5OS94bGluayI+CiAgICA8dGl0bGU+SWNvbi1BcmNoaXRlY3R1cmUvNjQvQXJjaF9BbWF6b24tU2ltcGxlLVN0b3JhZ2UtU2VydmljZV82NDwvdGl0bGU+CiAgICA8ZyBpZD0iSWNvbi1BcmNoaXRlY3R1cmUvNjQvQXJjaF9BbWF6b24tU2ltcGxlLVN0b3JhZ2UtU2VydmljZV82NCIgc3Ryb2tlPSJub25lIiBzdHJva2Utd2lkdGg9IjEiIGZpbGw9Im5vbmUiIGZpbGwtcnVsZT0iZXZlbm9kZCI+CiAgICAgICAgPGcgaWQ9Ikljb24tQXJjaGl0ZWN0dXJlLUJHLzY0L1N0b3JhZ2UiIGZpbGw9IiM3QUExMTYiPgogICAgICAgICAgICA8cmVjdCBpZD0iUmVjdGFuZ2xlIiB4PSIwIiB5PSIwIiB3aWR0aD0iODAiIGhlaWdodD0iODAiPjwvcmVjdD4KICAgICAgICA8L2c+CiAgICAgICAgPGcgaWQ9Ikljb24tU2VydmljZS82NC9BbWF6b24tU2ltcGxlLVN0b3JhZ2UtU2VydmljZV82NCIgdHJhbnNmb3JtPSJ0cmFuc2xhdGUoMTIuOTk5OTAwLCAxMS45OTk2MDApIiBmaWxsPSIjRkZGRkZGIj4KICAgICAgICAgICAgPHBhdGggZD0iTTQ3LjgzNiwzMC44OTMgTDQ4LjIyLDI4LjE4OSBDNTEuNzYxLDMwLjMxIDUxLjgwNywzMS4xODYgNTEuODA2MDEzMiwzMS4yMSBDNTEuOCwzMS4yMTUgNTEuMTk2LDMxLjcxOSA0Ny44MzYsMzAuODkzIEw0Ny44MzYsMzAuODkzIFogTTQ1Ljg5MywzMC4zNTMgQzM5Ljc3MywyOC41MDEgMzEuMjUsMjQuNTkxIDI3LjgwMSwyMi45NjEgQzI3LjgwMSwyMi45NDcgMjcuODA1LDIyLjkzNCAyNy44MDUsMjIuOTIgQzI3LjgwNSwyMS41OTUgMjYuNzI3LDIwLjUxNyAyNS40MDEsMjAuNTE3IEMyNC4wNzcsMjAuNTE3IDIyLjk5OSwyMS41OTUgMjIuOTk5LDIyLjkyIEMyMi45OTksMjQuMjQ1IDI0LjA3NywyNS4zMjMgMjUuNDAxLDI1LjMyMyBDMjUuOTgzLDI1LjMyMyAyNi41MTEsMjUuMTA2IDI2LjkyOCwyNC43NjEgQzMwLjk4NiwyNi42ODIgMzkuNDQzLDMwLjUzNSA0NS42MDgsMzIuMzU1IEw0My4xNyw0OS41NjEgQzQzLjE2Myw0OS42MDggNDMuMTYsNDkuNjU1IDQzLjE2LDQ5LjcwMiBDNDMuMTYsNTEuMjE3IDM2LjQ1Myw1NCAyNS40OTQsNTQgQzE0LjQxOSw1NCA3LjY0MSw1MS4yMTcgNy42NDEsNDkuNzAyIEM3LjY0MSw0OS42NTYgNy42MzgsNDkuNjExIDcuNjMyLDQ5LjU2NiBMMi41MzgsMTIuMzU5IEM2Ljk0NywxNS4zOTQgMTYuNDMsMTcgMjUuNSwxNyBDMzQuNTU2LDE3IDQ0LjAyMywxNS40IDQ4LjQ0MSwxMi4zNzQgTDQ1Ljg5MywzMC4zNTMgWiBNMiw4LjQ3OCBDMi4wNzIsNy4xNjIgOS42MzQsMiAyNS41LDIgQzQxLjM2NCwyIDQ4LjkyNyw3LjE2MSA0OSw4LjQ3OCBMNDksOC45MjcgQzQ4LjEzLDExLjg3OCAzOC4zMywxNSAyNS41LDE1IEMxMi42NDgsMTUgMi44NDMsMTEuODY4IDIsOC45MTMgTDIsOC40NzggWiBNNTEsOC41IEM1MSw1LjAzNSA0MS4wNjYsMCAyNS41LDAgQzkuOTM0LDAgMCw1LjAzNSAwLDguNSBMMC4wOTQsOS4yNTQgTDUuNjQyLDQ5Ljc3OCBDNS43NzUsNTQuMzEgMTcuODYxLDU2IDI1LjQ5NCw1NiBDMzQuOTY2LDU2IDQ1LjAyOSw1My44MjIgNDUuMTU5LDQ5Ljc4MSBMNDcuNTU1LDMyLjg4NCBDNDguODg4LDMzLjIwMyA0OS45ODUsMzMuMzY2IDUwLjg2NiwzMy4zNjYgQzUyLjA0OSwzMy4zNjYgNTIuODQ5LDMzLjA3NyA1My4zMzQsMzIuNDk5IEM1My43MzIsMzIuMDI1IDUzLjg4NCwzMS40NTEgNTMuNzcsMzAuODQgQzUzLjUxMSwyOS40NTYgNTEuODY4LDI3Ljk2NCA0OC41MjIsMjYuMDU1IEw1MC44OTgsOS4yOTMgTDUxLDguNSBaIiBpZD0iQW1hem9uLVNpbXBsZS1TdG9yYWdlLVNlcnZpY2UtSWNvbl82NF9TcXVpZCI+PC9wYXRoPgogICAgICAgIDwvZz4KICAgIDwvZz4KPC9zdmc+" parent="1" vertex="1">
          <mxGeometry x="270" y="690" width="64" height="64" as="geometry" />
        </mxCell>
        <mxCell id="ulP-s_4zBE7rIFDbzlDe-39" value="Amazon S3 bucket&#xa;Terraform state" style="shape=image;verticalLabelPosition=bottom;verticalAlign=top;imageAspect=0;aspect=fixed;image=data:image/svg+xml,PD94bWwgdmVyc2lvbj0iMS4wIiBlbmNvZGluZz0iVVRGLTgiPz4KPHN2ZyB3aWR0aD0iODBweCIgaGVpZ2h0PSI4MHB4IiB2aWV3Qm94PSIwIDAgODAgODAiIHZlcnNpb249IjEuMSIgeG1sbnM9Imh0dHA6Ly93d3cudzMub3JnLzIwMDAvc3ZnIiB4bWxuczp4bGluaz0iaHR0cDovL3d3dy53My5vcmcvMTk5OS94bGluayI+CiAgICA8dGl0bGU+SWNvbi1BcmNoaXRlY3R1cmUvNjQvQXJjaF9BbWF6b24tU2ltcGxlLVN0b3JhZ2UtU2VydmljZV82NDwvdGl0bGU+CiAgICA8ZyBpZD0iSWNvbi1BcmNoaXRlY3R1cmUvNjQvQXJjaF9BbWF6b24tU2ltcGxlLVN0b3JhZ2UtU2VydmljZV82NCIgc3Ryb2tlPSJub25lIiBzdHJva2Utd2lkdGg9IjEiIGZpbGw9Im5vbmUiIGZpbGwtcnVsZT0iZXZlbm9kZCI+CiAgICAgICAgPGcgaWQ9Ikljb24tQXJjaGl0ZWN0dXJlLUJHLzY0L1N0b3JhZ2UiIGZpbGw9IiM3QUExMTYiPgogICAgICAgICAgICA8cmVjdCBpZD0iUmVjdGFuZ2xlIiB4PSIwIiB5PSIwIiB3aWR0aD0iODAiIGhlaWdodD0iODAiPjwvcmVjdD4KICAgICAgICA8L2c+CiAgICAgICAgPGcgaWQ9Ikljb24tU2VydmljZS82NC9BbWF6b24tU2ltcGxlLVN0b3JhZ2UtU2VydmljZV82NCIgdHJhbnNmb3JtPSJ0cmFuc2xhdGUoMTIuOTk5OTAwLCAxMS45OTk2MDApIiBmaWxsPSIjRkZGRkZGIj4KICAgICAgICAgICAgPHBhdGggZD0iTTQ3LjgzNiwzMC44OTMgTDQ4LjIyLDI4LjE4OSBDNTEuNzYxLDMwLjMxIDUxLjgwNywzMS4xODYgNTEuODA2MDEzMiwzMS4yMSBDNTEuOCwzMS4yMTUgNTEuMTk2LDMxLjcxOSA0Ny44MzYsMzAuODkzIEw0Ny44MzYsMzAuODkzIFogTTQ1Ljg5MywzMC4zNTMgQzM5Ljc3MywyOC41MDEgMzEuMjUsMjQuNTkxIDI3LjgwMSwyMi45NjEgQzI3LjgwMSwyMi45NDcgMjcuODA1LDIyLjkzNCAyNy44MDUsMjIuOTIgQzI3LjgwNSwyMS41OTUgMjYuNzI3LDIwLjUxNyAyNS40MDEsMjAuNTE3IEMyNC4wNzcsMjAuNTE3IDIyLjk5OSwyMS41OTUgMjIuOTk5LDIyLjkyIEMyMi45OTksMjQuMjQ1IDI0LjA3NywyNS4zMjMgMjUuNDAxLDI1LjMyMyBDMjUuOTgzLDI1LjMyMyAyNi41MTEsMjUuMTA2IDI2LjkyOCwyNC43NjEgQzMwLjk4NiwyNi42ODIgMzkuNDQzLDMwLjUzNSA0NS42MDgsMzIuMzU1IEw0My4xNyw0OS41NjEgQzQzLjE2Myw0OS42MDggNDMuMTYsNDkuNjU1IDQzLjE2LDQ5LjcwMiBDNDMuMTYsNTEuMjE3IDM2LjQ1Myw1NCAyNS40OTQsNTQgQzE0LjQxOSw1NCA3LjY0MSw1MS4yMTcgNy42NDEsNDkuNzAyIEM3LjY0MSw0OS42NTYgNy42MzgsNDkuNjExIDcuNjMyLDQ5LjU2NiBMMi41MzgsMTIuMzU5IEM2Ljk0NywxNS4zOTQgMTYuNDMsMTcgMjUuNSwxNyBDMzQuNTU2LDE3IDQ0LjAyMywxNS40IDQ4LjQ0MSwxMi4zNzQgTDQ1Ljg5MywzMC4zNTMgWiBNMiw4LjQ3OCBDMi4wNzIsNy4xNjIgOS42MzQsMiAyNS41LDIgQzQxLjM2NCwyIDQ4LjkyNyw3LjE2MSA0OSw4LjQ3OCBMNDksOC45MjcgQzQ4LjEzLDExLjg3OCAzOC4zMywxNSAyNS41LDE1IEMxMi42NDgsMTUgMi44NDMsMTEuODY4IDIsOC45MTMgTDIsOC40NzggWiBNNTEsOC41IEM1MSw1LjAzNSA0MS4wNjYsMCAyNS41LDAgQzkuOTM0LDAgMCw1LjAzNSAwLDguNSBMMC4wOTQsOS4yNTQgTDUuNjQyLDQ5Ljc3OCBDNS43NzUsNTQuMzEgMTcuODYxLDU2IDI1LjQ5NCw1NiBDMzQuOTY2LDU2IDQ1LjAyOSw1My44MjIgNDUuMTU5LDQ5Ljc4MSBMNDcuNTU1LDMyLjg4NCBDNDguODg4LDMzLjIwMyA0OS45ODUsMzMuMzY2IDUwLjg2NiwzMy4zNjYgQzUyLjA0OSwzMy4zNjYgNTIuODQ5LDMzLjA3NyA1My4zMzQsMzIuNDk5IEM1My43MzIsMzIuMDI1IDUzLjg4NCwzMS40NTEgNTMuNzcsMzAuODQgQzUzLjUxMSwyOS40NTYgNTEuODY4LDI3Ljk2NCA0OC41MjIsMjYuMDU1IEw1MC44OTgsOS4yOTMgTDUxLDguNSBaIiBpZD0iQW1hem9uLVNpbXBsZS1TdG9yYWdlLVNlcnZpY2UtSWNvbl82NF9TcXVpZCI+PC9wYXRoPgogICAgICAgIDwvZz4KICAgIDwvZz4KPC9zdmc+" parent="1" vertex="1">
          <mxGeometry x="580" y="690" width="64" height="64" as="geometry" />
        </mxCell>
        <mxCell id="ulP-s_4zBE7rIFDbzlDe-46" value="" style="group" parent="1" vertex="1" connectable="0">
          <mxGeometry x="536" y="420" width="140" height="94" as="geometry" />
        </mxCell>
        <mxCell id="ulP-s_4zBE7rIFDbzlDe-9" value="AWS CodeBuild&#xa;Infracost breakdown" style="shape=image;verticalLabelPosition=bottom;verticalAlign=top;imageAspect=0;aspect=fixed;image=data:image/svg+xml,PD94bWwgdmVyc2lvbj0iMS4wIiBlbmNvZGluZz0iVVRGLTgiPz4KPHN2ZyB3aWR0aD0iODBweCIgaGVpZ2h0PSI4MHB4IiB2aWV3Qm94PSIwIDAgODAgODAiIHZlcnNpb249IjEuMSIgeG1sbnM9Imh0dHA6Ly93d3cudzMub3JnLzIwMDAvc3ZnIiB4bWxuczp4bGluaz0iaHR0cDovL3d3dy53My5vcmcvMTk5OS94bGluayI+CiAgICA8dGl0bGU+SWNvbi1BcmNoaXRlY3R1cmUvNjQvQXJjaF9BV1MtQ29kZUJ1aWxkXzY0PC90aXRsZT4KICAgIDxnIGlkPSJJY29uLUFyY2hpdGVjdHVyZS82NC9BcmNoX0FXUy1Db2RlQnVpbGRfNjQiIHN0cm9rZT0ibm9uZSIgc3Ryb2tlLXdpZHRoPSIxIiBmaWxsPSJub25lIiBmaWxsLXJ1bGU9ImV2ZW5vZGQiPgogICAgICAgIDxnIGlkPSJJY29uLUFyY2hpdGVjdHVyZS1CRy82NC9EZXZlbG9wZXItVG9vbHMiIGZpbGw9IiNDOTI1RDEiPgogICAgICAgICAgICA8cmVjdCBpZD0iUmVjdGFuZ2xlIiB4PSIwIiB5PSIwIiB3aWR0aD0iODAiIGhlaWdodD0iODAiPjwvcmVjdD4KICAgICAgICA8L2c+CiAgICAgICAgPHBhdGggZD0iTTY1LjQzOTYzMjksMjIgTDU5LjQ4NTUxNTIsMTYuNTQ5IEw1My41MjU0NDI0LDIyIEw2NS40Mzk2MzI5LDIyIFogTTU3LjIwMTczMDQsMTUuOTM4IEw0NS4xMjM3NzQzLDE1Ljk1NiBMNTEuNTc1MTQzNywyMS4wODMgTDU3LjIwMTczMDQsMTUuOTM4IFogTTUxLjc1NDc4OTYsMzMuNSBMNDIuMjQ4NDQ4NiwzNyBMNjAuNTM0NjA3MSwzNyBMNTEuNzU0Nzg5NiwzMy41IFogTTM3Ljc5Nzk5NjIsNTcgTDY0LjU5NTk5MjMsNTcgTDY0LjU5NTk5MjMsMzkgTDM3Ljc5Nzk5NjIsMzkgTDM3Ljc5Nzk5NjIsNTcgWiBNNDkuNTIyNjE1NywyMiBMNDIuOTM3MjU2MywxNi43NjYgTDM2LjM5NTU2NzcsMjIgTDQ5LjUyMjYxNTcsMjIgWiBNMzQuMzA5Mjk0MSwyMS4xMTUgTDQwLjc0ODc1MzMsMTUuOTYzIEwyNy45MTE1MjA2LDE1Ljk4MiBMMzQuMzA5Mjk0MSwyMS4xMTUgWiBNMzIuMjI1MDA1NSwyMiBMMjUuNjUyNTQ4OCwxNi43MjYgTDE5LjA4MDA5MjEsMjIgTDI4Ljg2NTMzMDgsMjIgTDMyLjIyNTAwNTUsMjIgWiBNMjcuODcyODEyNCwyNCBMMTkuODQyMzQ2MiwyNCBMMjcuODcyODEyNCwzMS45NjUgTDI3Ljg3MjgxMjQsMjQgWiBNMjcuODcyODEyNCwzNS4wODMgTDE4LjQ0Nzg1NzksNDMuNjY1IEwyNy44NzI4MTI0LDUyLjg4OSBMMjcuODcyODEyNCwzNS4wODMgWiBNMjcuODcyODEyNCw1Ni4xMzcgTDE3Ljk0NzYyODYsNjUuODM5IEwxNy45NDc2Mjg2LDY2IEwyNy44NzI4MTI0LDY2IEwyNy44NzI4MTI0LDU2LjEzNyBaIE0xNy45NDc2Mjg2LDQ1Ljk2MyBMMTcuOTQ3NjI4Niw2My4wNTMgTDI2LjY4Mzc3NTQsNTQuNTEzIEwxNy45NDc2Mjg2LDQ1Ljk2MyBaIE0xNy45NDc2Mjg2LDQxLjQyNCBMMjYuNjIwMjU0MiwzMy41MjggTDE3Ljk0NzYyODYsMjQuOTI4IEwxNy45NDc2Mjg2LDQxLjQyNCBaIE0xNi45NTUxMTAzLDIxLjE0OCBMMjMuMzg0NjQ0MywxNS45ODkgTDE2Ljk1NTExMDMsMTUuOTk5IEwxNi45NTUxMTAzLDIxLjE0OCBaIE0xNC45NzAwNzM1LDE0IEwxMi45ODUwMzY4LDE0IEwxMi45ODUwMzY4LDI0IEwxNC45NzAwNzM1LDI0IEwxNC45NzAwNzM1LDIzIEwxNC45NzAwNzM1LDE1IEwxNC45NzAwNzM1LDE0IFogTTY4LjkzMzI5NzYsMjMuMzYgQzY4Ljc4NTQxMjQsMjMuNzQ2IDY4LjQxNzE4ODEsMjQgNjguMDA3Mjc4LDI0IEw1Mi42ODU3NzE4LDI0IEw1Mi42ODU3NzE4LDMyIEw2NS45NjM2ODI3LDM3LjA3NCBMNjUuOTYyNjkwMSwzNy4wNzYgQzY2LjMyNTk1MTksMzcuMjI1IDY2LjU4MTAyOTEsMzcuNTgyIDY2LjU4MTAyOTEsMzggTDY2LjU4MTAyOTEsNTggQzY2LjU4MTAyOTEsNTguNTUyIDY2LjEzNzM3MzQsNTkgNjUuNTg4NTEwNyw1OSBMMzYuODA1NDc3OCw1OSBDMzYuMjU3NjA3Niw1OSAzNS44MTI5NTk0LDU4LjU1MiAzNS44MTI5NTk0LDU4IEwzNS44MTI5NTk0LDM4IEMzNS44MTI5NTk0LDM3LjU3MiAzNi4wODI5MjQ0LDM3LjIxMyAzNi40NTkwODg5LDM3LjA3MSBMMzYuNDU2MTExMywzNy4wNjQgTDUwLjcwMDczNTEsMzIgTDUwLjcwMDczNTEsMjQgTDI5Ljg1Nzg0OTIsMjQgTDI5Ljg1Nzg0OTIsNjcgQzI5Ljg1Nzg0OTIsNjcuNTUyIDI5LjQxNDE5MzQsNjggMjguODY1MzMwOCw2OCBMMTYuOTU1MTEwMyw2OCBDMTYuNDA3MjQwMSw2OCAxNS45NjI1OTE5LDY3LjU1MiAxNS45NjI1OTE5LDY3IEwxNS45NjI1OTE5LDI2IEwxMS45OTI1MTg0LDI2IEMxMS40NDQ2NDgyLDI2IDExLDI1LjU1MiAxMSwyNSBMMTEsMTMgQzExLDEyLjQ0OCAxMS40NDQ2NDgyLDEyIDExLjk5MjUxODQsMTIgTDE1Ljk2MjU5MTksMTIgQzE2LjUxMTQ1NDUsMTIgMTYuOTU1MTEwMywxMi40NDggMTYuOTU1MTEwMywxMyBMMTYuOTU1MTEwMywxMy45OTkgTDU5LjYzMzQwMDQsMTQgTDY4LjY3NTI0MjksMjIuMjYgQzY4Ljk3Nzk2MSwyMi41MzggNjkuMDgxMTgyOSwyMi45NzUgNjguOTMzMjk3NiwyMy4zNiBMNjguOTMzMjk3NiwyMy4zNiBaIE00OC4zMzk1MzM4LDU1LjMwOCBMNTQuMTE1OTkwOCw0Mi4wODMgTDUyLjI5OTY4MjIsNDEuMjc3IEw0Ni41MjMyMjUyLDU0LjUwMiBMNDguMzM5NTMzOCw1NS4zMDggWiBNNTMuNzY1NjMxOCw1MC44ODggTDU1LjA0ODk1ODEsNTIuNDE1IEw1OS4zMzY2Mzc1LDQ4Ljc1NyBDNTkuNTQ3MDUxMyw0OC41NzcgNTkuNjczMTAxMiw0OC4zMTYgNTkuNjg2MDAzOSw0OC4wMzkgQzU5LjY5ODkwNjcsNDcuNzYxIDU5LjU5NDY5MjIsNDcuNDkgNTkuNDAxMTUxMSw0Ny4yOTIgTDU1LjgyMjEyOTksNDMuNjMzIEw1NC40MDg3ODM3LDQ1LjAzOCBMNTcuMjM1NDc2LDQ3LjkyOCBMNTMuNzY1NjMxOCw1MC44ODggWiBNNDAuODcwODMzMSw0Ny45ODQgQzQwLjY1MjQ3OSw0Ny43ODMgNDAuNTM0MzY5Myw0Ny40OTMgNDAuNTUwMjQ5Niw0Ny4xOTUgQzQwLjU2NTEzNzQsNDYuODk2IDQwLjcxMzAyMjYsNDYuNjIxIDQwLjk1MTIyNyw0Ni40NDMgTDQ1LjgyMTUxNDcsNDIuODEyIEw0Ny4wMDI2MTE2LDQ0LjQxOSBMNDMuMTAwMDI5Myw0Ny4zMyBMNDYuMzc1MzQsNTAuMzU0IEw0NS4wMzM0NTUxLDUxLjgyOSBMNDAuODcwODMzMSw0Ny45ODQgWiIgaWQ9IkFXUy1Db2RlQnVpbGRfSWNvbl82NF9TcXVpZCIgZmlsbD0iI0ZGRkZGRiI+PC9wYXRoPgogICAgPC9nPgo8L3N2Zz4=" parent="ulP-s_4zBE7rIFDbzlDe-46" vertex="1">
          <mxGeometry x="38" y="30" width="64" height="64" as="geometry" />
        </mxCell>
        <mxCell id="ulP-s_4zBE7rIFDbzlDe-10" value="Stage 3: Check costs" style="text;html=1;align=center;verticalAlign=middle;resizable=0;points=[];autosize=1;strokeColor=none;fillColor=none;" parent="ulP-s_4zBE7rIFDbzlDe-46" vertex="1">
          <mxGeometry width="140" height="30" as="geometry" />
        </mxCell>
        <mxCell id="ulP-s_4zBE7rIFDbzlDe-47" value="" style="group" parent="1" vertex="1" connectable="0">
          <mxGeometry x="404" y="420" width="100" height="94" as="geometry" />
        </mxCell>
        <mxCell id="ulP-s_4zBE7rIFDbzlDe-2" value="AWS CodeBuild&#xa;Terraform plan" style="shape=image;verticalLabelPosition=bottom;verticalAlign=top;imageAspect=0;aspect=fixed;image=data:image/svg+xml,PD94bWwgdmVyc2lvbj0iMS4wIiBlbmNvZGluZz0iVVRGLTgiPz4KPHN2ZyB3aWR0aD0iODBweCIgaGVpZ2h0PSI4MHB4IiB2aWV3Qm94PSIwIDAgODAgODAiIHZlcnNpb249IjEuMSIgeG1sbnM9Imh0dHA6Ly93d3cudzMub3JnLzIwMDAvc3ZnIiB4bWxuczp4bGluaz0iaHR0cDovL3d3dy53My5vcmcvMTk5OS94bGluayI+CiAgICA8dGl0bGU+SWNvbi1BcmNoaXRlY3R1cmUvNjQvQXJjaF9BV1MtQ29kZUJ1aWxkXzY0PC90aXRsZT4KICAgIDxnIGlkPSJJY29uLUFyY2hpdGVjdHVyZS82NC9BcmNoX0FXUy1Db2RlQnVpbGRfNjQiIHN0cm9rZT0ibm9uZSIgc3Ryb2tlLXdpZHRoPSIxIiBmaWxsPSJub25lIiBmaWxsLXJ1bGU9ImV2ZW5vZGQiPgogICAgICAgIDxnIGlkPSJJY29uLUFyY2hpdGVjdHVyZS1CRy82NC9EZXZlbG9wZXItVG9vbHMiIGZpbGw9IiNDOTI1RDEiPgogICAgICAgICAgICA8cmVjdCBpZD0iUmVjdGFuZ2xlIiB4PSIwIiB5PSIwIiB3aWR0aD0iODAiIGhlaWdodD0iODAiPjwvcmVjdD4KICAgICAgICA8L2c+CiAgICAgICAgPHBhdGggZD0iTTY1LjQzOTYzMjksMjIgTDU5LjQ4NTUxNTIsMTYuNTQ5IEw1My41MjU0NDI0LDIyIEw2NS40Mzk2MzI5LDIyIFogTTU3LjIwMTczMDQsMTUuOTM4IEw0NS4xMjM3NzQzLDE1Ljk1NiBMNTEuNTc1MTQzNywyMS4wODMgTDU3LjIwMTczMDQsMTUuOTM4IFogTTUxLjc1NDc4OTYsMzMuNSBMNDIuMjQ4NDQ4NiwzNyBMNjAuNTM0NjA3MSwzNyBMNTEuNzU0Nzg5NiwzMy41IFogTTM3Ljc5Nzk5NjIsNTcgTDY0LjU5NTk5MjMsNTcgTDY0LjU5NTk5MjMsMzkgTDM3Ljc5Nzk5NjIsMzkgTDM3Ljc5Nzk5NjIsNTcgWiBNNDkuNTIyNjE1NywyMiBMNDIuOTM3MjU2MywxNi43NjYgTDM2LjM5NTU2NzcsMjIgTDQ5LjUyMjYxNTcsMjIgWiBNMzQuMzA5Mjk0MSwyMS4xMTUgTDQwLjc0ODc1MzMsMTUuOTYzIEwyNy45MTE1MjA2LDE1Ljk4MiBMMzQuMzA5Mjk0MSwyMS4xMTUgWiBNMzIuMjI1MDA1NSwyMiBMMjUuNjUyNTQ4OCwxNi43MjYgTDE5LjA4MDA5MjEsMjIgTDI4Ljg2NTMzMDgsMjIgTDMyLjIyNTAwNTUsMjIgWiBNMjcuODcyODEyNCwyNCBMMTkuODQyMzQ2MiwyNCBMMjcuODcyODEyNCwzMS45NjUgTDI3Ljg3MjgxMjQsMjQgWiBNMjcuODcyODEyNCwzNS4wODMgTDE4LjQ0Nzg1NzksNDMuNjY1IEwyNy44NzI4MTI0LDUyLjg4OSBMMjcuODcyODEyNCwzNS4wODMgWiBNMjcuODcyODEyNCw1Ni4xMzcgTDE3Ljk0NzYyODYsNjUuODM5IEwxNy45NDc2Mjg2LDY2IEwyNy44NzI4MTI0LDY2IEwyNy44NzI4MTI0LDU2LjEzNyBaIE0xNy45NDc2Mjg2LDQ1Ljk2MyBMMTcuOTQ3NjI4Niw2My4wNTMgTDI2LjY4Mzc3NTQsNTQuNTEzIEwxNy45NDc2Mjg2LDQ1Ljk2MyBaIE0xNy45NDc2Mjg2LDQxLjQyNCBMMjYuNjIwMjU0MiwzMy41MjggTDE3Ljk0NzYyODYsMjQuOTI4IEwxNy45NDc2Mjg2LDQxLjQyNCBaIE0xNi45NTUxMTAzLDIxLjE0OCBMMjMuMzg0NjQ0MywxNS45ODkgTDE2Ljk1NTExMDMsMTUuOTk5IEwxNi45NTUxMTAzLDIxLjE0OCBaIE0xNC45NzAwNzM1LDE0IEwxMi45ODUwMzY4LDE0IEwxMi45ODUwMzY4LDI0IEwxNC45NzAwNzM1LDI0IEwxNC45NzAwNzM1LDIzIEwxNC45NzAwNzM1LDE1IEwxNC45NzAwNzM1LDE0IFogTTY4LjkzMzI5NzYsMjMuMzYgQzY4Ljc4NTQxMjQsMjMuNzQ2IDY4LjQxNzE4ODEsMjQgNjguMDA3Mjc4LDI0IEw1Mi42ODU3NzE4LDI0IEw1Mi42ODU3NzE4LDMyIEw2NS45NjM2ODI3LDM3LjA3NCBMNjUuOTYyNjkwMSwzNy4wNzYgQzY2LjMyNTk1MTksMzcuMjI1IDY2LjU4MTAyOTEsMzcuNTgyIDY2LjU4MTAyOTEsMzggTDY2LjU4MTAyOTEsNTggQzY2LjU4MTAyOTEsNTguNTUyIDY2LjEzNzM3MzQsNTkgNjUuNTg4NTEwNyw1OSBMMzYuODA1NDc3OCw1OSBDMzYuMjU3NjA3Niw1OSAzNS44MTI5NTk0LDU4LjU1MiAzNS44MTI5NTk0LDU4IEwzNS44MTI5NTk0LDM4IEMzNS44MTI5NTk0LDM3LjU3MiAzNi4wODI5MjQ0LDM3LjIxMyAzNi40NTkwODg5LDM3LjA3MSBMMzYuNDU2MTExMywzNy4wNjQgTDUwLjcwMDczNTEsMzIgTDUwLjcwMDczNTEsMjQgTDI5Ljg1Nzg0OTIsMjQgTDI5Ljg1Nzg0OTIsNjcgQzI5Ljg1Nzg0OTIsNjcuNTUyIDI5LjQxNDE5MzQsNjggMjguODY1MzMwOCw2OCBMMTYuOTU1MTEwMyw2OCBDMTYuNDA3MjQwMSw2OCAxNS45NjI1OTE5LDY3LjU1MiAxNS45NjI1OTE5LDY3IEwxNS45NjI1OTE5LDI2IEwxMS45OTI1MTg0LDI2IEMxMS40NDQ2NDgyLDI2IDExLDI1LjU1MiAxMSwyNSBMMTEsMTMgQzExLDEyLjQ0OCAxMS40NDQ2NDgyLDEyIDExLjk5MjUxODQsMTIgTDE1Ljk2MjU5MTksMTIgQzE2LjUxMTQ1NDUsMTIgMTYuOTU1MTEwMywxMi40NDggMTYuOTU1MTEwMywxMyBMMTYuOTU1MTEwMywxMy45OTkgTDU5LjYzMzQwMDQsMTQgTDY4LjY3NTI0MjksMjIuMjYgQzY4Ljk3Nzk2MSwyMi41MzggNjkuMDgxMTgyOSwyMi45NzUgNjguOTMzMjk3NiwyMy4zNiBMNjguOTMzMjk3NiwyMy4zNiBaIE00OC4zMzk1MzM4LDU1LjMwOCBMNTQuMTE1OTkwOCw0Mi4wODMgTDUyLjI5OTY4MjIsNDEuMjc3IEw0Ni41MjMyMjUyLDU0LjUwMiBMNDguMzM5NTMzOCw1NS4zMDggWiBNNTMuNzY1NjMxOCw1MC44ODggTDU1LjA0ODk1ODEsNTIuNDE1IEw1OS4zMzY2Mzc1LDQ4Ljc1NyBDNTkuNTQ3MDUxMyw0OC41NzcgNTkuNjczMTAxMiw0OC4zMTYgNTkuNjg2MDAzOSw0OC4wMzkgQzU5LjY5ODkwNjcsNDcuNzYxIDU5LjU5NDY5MjIsNDcuNDkgNTkuNDAxMTUxMSw0Ny4yOTIgTDU1LjgyMjEyOTksNDMuNjMzIEw1NC40MDg3ODM3LDQ1LjAzOCBMNTcuMjM1NDc2LDQ3LjkyOCBMNTMuNzY1NjMxOCw1MC44ODggWiBNNDAuODcwODMzMSw0Ny45ODQgQzQwLjY1MjQ3OSw0Ny43ODMgNDAuNTM0MzY5Myw0Ny40OTMgNDAuNTUwMjQ5Niw0Ny4xOTUgQzQwLjU2NTEzNzQsNDYuODk2IDQwLjcxMzAyMjYsNDYuNjIxIDQwLjk1MTIyNyw0Ni40NDMgTDQ1LjgyMTUxNDcsNDIuODEyIEw0Ny4wMDI2MTE2LDQ0LjQxOSBMNDMuMTAwMDI5Myw0Ny4zMyBMNDYuMzc1MzQsNTAuMzU0IEw0NS4wMzM0NTUxLDUxLjgyOSBMNDAuODcwODMzMSw0Ny45ODQgWiIgaWQ9IkFXUy1Db2RlQnVpbGRfSWNvbl82NF9TcXVpZCIgZmlsbD0iI0ZGRkZGRiI+PC9wYXRoPgogICAgPC9nPgo8L3N2Zz4=" parent="ulP-s_4zBE7rIFDbzlDe-47" vertex="1">
          <mxGeometry x="18" y="30" width="64" height="64" as="geometry" />
        </mxCell>
        <mxCell id="ulP-s_4zBE7rIFDbzlDe-6" value="Stage 2: Plan" style="text;html=1;align=center;verticalAlign=middle;resizable=0;points=[];autosize=1;strokeColor=none;fillColor=none;" parent="ulP-s_4zBE7rIFDbzlDe-47" vertex="1">
          <mxGeometry width="100" height="30" as="geometry" />
        </mxCell>
        <mxCell id="ulP-s_4zBE7rIFDbzlDe-48" value="" style="group" parent="1" vertex="1" connectable="0">
          <mxGeometry x="242" y="420" width="120" height="94" as="geometry" />
        </mxCell>
        <mxCell id="ulP-s_4zBE7rIFDbzlDe-3" value="GitHub repository" style="shape=image;verticalLabelPosition=bottom;verticalAlign=top;imageAspect=0;aspect=fixed;image=data:image/svg+xml,PD94bWwgdmVyc2lvbj0iMS4wIiBlbmNvZGluZz0iVVRGLTgiPz4KPHN2ZyB3aWR0aD0iODBweCIgaGVpZ2h0PSI4MHB4IiB2aWV3Qm94PSIwIDAgODAgODAiIHZlcnNpb249IjEuMSIgeG1sbnM9Imh0dHA6Ly93d3cudzMub3JnLzIwMDAvc3ZnIiB4bWxuczp4bGluaz0iaHR0cDovL3d3dy53My5vcmcvMTk5OS94bGluayI+CiAgICA8dGl0bGU+SWNvbi1BcmNoaXRlY3R1cmUvNjQvQXJjaF9BV1MtQ29kZUNvbW1pdF82NDwvdGl0bGU+CiAgICA8ZyBpZD0iSWNvbi1BcmNoaXRlY3R1cmUvNjQvQXJjaF9BV1MtQ29kZUNvbW1pdF82NCIgc3Ryb2tlPSJub25lIiBzdHJva2Utd2lkdGg9IjEiIGZpbGw9Im5vbmUiIGZpbGwtcnVsZT0iZXZlbm9kZCI+CiAgICAgICAgPGcgaWQ9Ikljb24tQXJjaGl0ZWN0dXJlLUJHLzY0L0RldmVsb3Blci1Ub29scyIgZmlsbD0iI0M5MjVEMSI+CiAgICAgICAgICAgIDxyZWN0IGlkPSJSZWN0YW5nbGUiIHg9IjAiIHk9IjAiIHdpZHRoPSI4MCIgaGVpZ2h0PSI4MCI+PC9yZWN0PgogICAgICAgIDwvZz4KICAgICAgICA8cGF0aCBkPSJNMjYuNjI4MzE4NiwyOC4xMDQ3MjUxIEwyNC42MTA2MTk1LDI4LjEwNDcyNTEgTDI0LjYxMDYxOTUsMjEuMTIzMDUyIEMyNC42MTA2MTk1LDIwLjU2NDUxODEgMjQuOTcwNzc4OCwyMC4xMzI2NTE4IDI1LjUzNjc0MzQsMjAuMTMyNjUxOCBMMzIuNjgxNDE1OSwyMC4xMjU2NzAxIEwzMi42ODE0MTU5LDIyLjEyMDQzMzkgTDI3Ljk0OTkxMTUsMjIuMTIwNDMzOSBMMzIuODExNTU3NSwyNi45Mzg3ODU3IEwzMS4zNjY4ODUsMjguMzczMDIwOCBMMjYuNTYwNzI1NywyMy42NDU0MzA3IEwyNi42MjgzMTg2LDI4LjEwNDcyNTEgWiBNNTQuNjk4NTQ4NywzOC45NzIxOTggTDU2LjU2NjkzODEsMzkuNzk5MDI3NiBMNTAuMDI1NTU3NSw1NC4yNDUxMDY2IEw0OC4xNTgxNzcsNTMuNDE4Mjc3IEw1NC42OTg1NDg3LDM4Ljk3MjE5OCBaIE01Ni4wMDkwNDQyLDQ5LjQ2NDY1NTMgTDYwLjAxMjE1OTMsNDYuNTc1MjQgTDU2LjQ4NjIzMDEsNDMuMDM5NTIxMyBMNTcuOTQ0MDE3Nyw0MS42MTgyNTIxIEw2Mi4zMDMyNTY2LDQ1Ljk5MDc3NDIgQzYyLjUxMjA4ODUsNDYuMjAwMjI0NCA2Mi42MTkwMjY1LDQ2LjQ4OTQ2NTIgNjIuNTkzODA1Myw0Ni43ODI2OTU0IEM2Mi41NzA2MDE4LDQ3LjA3NTkyNTcgNjIuNDE4MjY1NSw0Ny4zNDUyMTg4IDYyLjE3NzE1MDQsNDcuNTE3NzY1OSBMNTcuMjE0NjE5NSw1MS4wOTgzNjY4IEw1Ni4wMDkwNDQyLDQ5LjQ2NDY1NTMgWiBNNDYuOTY1NzE2OCw0MC42NjI3NjAzIEw0OC4xNzEyOTIsNDIuMjk2NDcxOCBMNDQuMTA5NjYzNyw0NS4yMjc3NzcxIEw0Ny42NDc2OTkxLDQ4Ljc2NDQ5MzIgTDQ2LjE5Mzk0NjksNTAuMTg3NzU3MSBMNDEuODE5NTc1Miw0NS44MTUyMzUgQzQxLjYwOTczNDUsNDUuNjA1Nzg0OCA0MS41MDE3ODc2LDQ1LjMxNjU0NDEgNDEuNTI3MDA4OCw0NS4wMjMzMTM4IEM0MS41NTAyMTI0LDQ0LjcyOTA4NjEgNDEuNzAxNTM5OCw0NC40NjA3OTA0IDQxLjk0MzY2MzcsNDQuMjg3MjQ2IEw0Ni45NjU3MTY4LDQwLjY2Mjc2MDMgWiBNNjksMjQuMTMwMTU4MyBMNjksNjYuOTg3NjU3NCBDNjksNjcuNTQ3MTg4NiA2OC41NDE5ODIzLDY4IDY3Ljk3NjAxNzcsNjggTDM2LjcxNjgxNDIsNjggQzM2LjQ0NDQyNDgsNjggMzYuMTg1MTUwNCw2Ny44OTMyODAxIDM1Ljk5MzQ2OSw2Ny43MDI3ODAyIEMzNS44MDE3ODc2LDY3LjUxMzI3NzYgMzUuNzA3OTY0Niw2Ny4yNzA5MTM5IDM1LjcwNzk2NDYsNjcuMDAyNjE4MSBMMzUuNzA3OTY0Niw1NS4wMzQwMzU3IEwzNy43MjU2NjM3LDU1LjAzNDAzNTcgTDM3LjcyNTY2MzcsNjYuMDA1MjM2MyBMNjYuOTgyMzAwOSw2Ni4wMDUyMzYzIEw2Ni45ODIzMDA5LDI1LjExMjU3OTUgTDM3LjcyNTY2MzcsMjUuMTEyNTc5NSBMMzcuNzI1NjYzNywyMy4xMTc4MTU3IEw2Ny45NzYwMTc3LDIzLjExNzgxNTcgQzY4LjU0MTk4MjMsMjMuMTE3ODE1NyA2OSwyMy41NzA2MjcxIDY5LDI0LjEzMDE1ODMgTDY5LDI0LjEzMDE1ODMgWiBNMzMuMTgxODA1MywzNC41ODc3MDczIEMzMy4xODE4MDUzLDMyLjY2MDc2NTUgMzQuNzY2NzA4LDMxLjA5Mjg4MTIgMzYuNzE2ODE0MiwzMS4wOTI4ODEyIEMzOC42NjY5MjA0LDMxLjA5Mjg4MTIgNDAuMjUxODIzLDMyLjY2MDc2NTUgNDAuMjUxODIzLDM0LjU4NzcwNzMgQzQwLjI1MTgyMywzNi41MTQ2NDkgMzguNjY2OTIwNCwzOC4wODI1MzMzIDM2LjcxNjgxNDIsMzguMDgyNTMzMyBDMzQuNzY2NzA4LDM4LjA4MjUzMzMgMzMuMTgxODA1MywzNi41MTQ2NDkgMzMuMTgxODA1MywzNC41ODc3MDczIEwzMy4xODE4MDUzLDM0LjU4NzcwNzMgWiBNMTcuNTQ4NjcyNiw2Ni4wMDkyMjU4IEMxNS41OTg1NjY0LDY2LjAwOTIyNTggMTQuMDEzNjYzNyw2NC40NDEzNDE1IDE0LjAxMzY2MzcsNjIuNTE0Mzk5NyBDMTQuMDEzNjYzNyw2MC41ODc0NTc5IDE1LjU5ODU2NjQsNTkuMDE5NTczNiAxNy41NDg2NzI2LDU5LjAxOTU3MzYgQzE5LjQ5ODc3ODgsNTkuMDE5NTczNiAyMS4wODM2ODE0LDYwLjU4NzQ1NzkgMjEuMDgzNjgxNCw2Mi41MTQzOTk3IEMyMS4wODM2ODE0LDY0LjQ0MTM0MTUgMTkuNDk4Nzc4OCw2Ni4wMDkyMjU4IDE3LjU0ODY3MjYsNjYuMDA5MjI1OCBMMTcuNTQ4NjcyNiw2Ni4wMDkyMjU4IFogTTE0LjAxMzY2MzcsNDIuNTY2NzYyMiBDMTQuMDEzNjYzNyw0MC42Mzk4MjA1IDE1LjU5ODU2NjQsMzkuMDcxOTM2MiAxNy41NDg2NzI2LDM5LjA3MTkzNjIgQzE5LjUzMTA2MTksMzkuMDcxOTM2MiAyMS4wODM2ODE0LDQwLjYwNjkwNjkgMjEuMDgzNjgxNCw0Mi41NjY3NjIyIEMyMS4wODM2ODE0LDQ0LjQ5MzcwNCAxOS40OTg3Nzg4LDQ2LjA2MTU4ODMgMTcuNTQ4NjcyNiw0Ni4wNjE1ODgzIEMxNS41OTg1NjY0LDQ2LjA2MTU4ODMgMTQuMDEzNjYzNyw0NC40OTM3MDQgMTQuMDEzNjYzNyw0Mi41NjY3NjIyIEwxNC4wMTM2NjM3LDQyLjU2Njc2MjIgWiBNMTQuMDE3Njk5MSwxNy40ODU2MDAzIEMxNC4wMTc2OTkxLDE1LjU2MDY1MzMgMTUuNjAxNTkyOSwxMy45OTQ3NjM3IDE3LjU0ODY3MjYsMTMuOTk0NzYzNyBDMTkuNDk1NzUyMiwxMy45OTQ3NjM3IDIxLjA3OTY0NiwxNS41NjA2NTMzIDIxLjA3OTY0NiwxNy40ODU2MDAzIEMyMS4wNzk2NDYsMTkuNDA5NTQ5OSAxOS40OTU3NTIyLDIwLjk3NjQzNjkgMTcuNTQ4NjcyNiwyMC45NzY0MzY5IEMxNS42MDE1OTI5LDIwLjk3NjQzNjkgMTQuMDE3Njk5MSwxOS40MDk1NDk5IDE0LjAxNzY5OTEsMTcuNDg1NjAwMyBMMTQuMDE3Njk5MSwxNy40ODU2MDAzIFogTTM3LjcyNTY2MzcsNDcuMjQ4NDcyOCBMMzcuNzI1NjYzNywzOS45NzE1NzQ2IEM0MC4yOTUyMDM1LDM5LjQ5NDgyNjEgNDIuMjYxNDUxMywzNy4yNjM2ODI4IDQyLjI2MTQ1MTMsMzQuNTg3NzA3MyBDNDIuMjYxNDUxMywzMS41NjU2NDAyIDM5Ljc3MzYyODMsMjkuMTA2MDk2NSAzNi43MTY4MTQyLDI5LjEwNjA5NjUgQzMzLjY2LDI5LjEwNjA5NjUgMzEuMTcyMTc3LDMxLjU2NTY0MDIgMzEuMTcyMTc3LDM0LjU4NzcwNzMgQzMxLjE3MjE3NywzNy4yNjM2ODI4IDMzLjEzODQyNDgsMzkuNDk0ODI2MSAzNS43MDc5NjQ2LDM5Ljk3MTU3NDYgTDM1LjcwNzk2NDYsNDcuMjQ4NDcyOCBDMzUuNzA3OTY0Niw0OC40MTE0MiAzNC45MjIwNzA4LDQ5LjQ2NTY1MjcgMzMuNzI3NTkyOSw0OS45MzQ0MjIxIEwyMy4yNzY5MjA0LDU0LjAzNDY1OSBDMjEuNjA0MjQ3OCw1NC42OTA5MzYzIDIwLjM3NDQ2MDIsNTUuOTgxNTQ4NCAxOS44NDI3OTY1LDU3LjUzMDQ4MjUgQzE5LjQxLDU3LjMzNDk5NTYgMTkuMDQxNzY5OSw1Ny4xOTQzNjQ4IDE4LjU1NzUyMjEsNTcuMTEzNTc2OSBMMTguNTU3NTIyMSw0Ny45Njc1ODUxIEMyMS4xODA1MzEsNDcuNTM0NzIxNCAyMy4wOTMzMDk3LDQ1LjI4MDYzODMgMjMuMDkzMzA5Nyw0Mi41NjY3NjIyIEMyMy4wOTMzMDk3LDM5LjgwMzAxNzEgMjEuMjE0ODMxOSwzNy41OTQ4MTM2IDE4LjU1NzUyMjEsMzcuMTczOTE4NSBMMTguNTU3NTIyMSwyMi44ODk0MTUzIEMyMS4xODM1NTc1LDIyLjQ1NzU0ODkgMjMuMDk3MzQ1MSwyMC4yMDE0NzExIDIzLjA5NzM0NTEsMTcuNDg1NjAwMyBDMjMuMDk3MzQ1MSwxNC40NjA1NDExIDIwLjYwODUxMzMsMTIgMTcuNTQ4NjcyNiwxMiBDMTQuNDg4ODMxOSwxMiAxMiwxNC40NjA1NDExIDEyLDE3LjQ4NTYwMDMgQzEyLDIwLjEyNTY3MDEgMTQuMDIxNzM0NSwyMi4zMzU4NjgzIDE2LjUzOTgyMywyMi44NTQ1MDY5IEwxNi41Mzk4MjMsMzcuMjAxODQ1MiBDMTQuMDI0NzYxMSwzNy43MjA0ODM3IDEyLjAwNDAzNTQsMzkuOTI4Njg3MiAxMi4wMDQwMzU0LDQyLjU2Njc2MjIgQzEyLjAwNDAzNTQsNDUuMjA0ODM3MyAxNC4wMjQ3NjExLDQ3LjQxMzA0MDggMTYuNTM5ODIzLDQ3LjkzMTY3OTMgTDE2LjUzOTgyMyw1Ny4xNDk0ODI2IEMxNC4wMjQ3NjExLDU3LjY2ODEyMTIgMTIuMDA0MDM1NCw1OS44NzYzMjQ2IDEyLjAwNDAzNTQsNjIuNTE0Mzk5NyBDMTIuMDA0MDM1NCw2NS41MzY0NjY4IDE0LjQ5MTg1ODQsNjcuOTk2MDEwNSAxNy41NDg2NzI2LDY3Ljk5NjAxMDUgQzIwLjYwNTQ4NjcsNjcuOTk2MDEwNSAyMy4wOTMzMDk3LDY1LjUzNjQ2NjggMjMuMDkzMzA5Nyw2Mi41MTQzOTk3IEMyMy4wOTMzMDk3LDYxLjA5MTEzNTggMjIuNTM2NDI0OCw1OS43OTY1MzQxIDIxLjYzNDUxMzMsNTguODIxMDk0NiBDMjEuODAxOTgyMyw1Ny41NTA0MzAxIDIyLjcwMDg2NzMsNTYuNDM3MzUyIDI0LjAzMTUzOTgsNTUuOTE1NzIxMiBMMzQuNDgyMjEyNCw1MS44MTU0ODQ0IEMzNi40NjE1NzUyLDUxLjAzODUyMzkgMzcuNzI1NjYzNyw0OS4yNDYyMjg2IDM3LjcyNTY2MzcsNDcuMjQ4NDcyOCBMMzcuNzI1NjYzNyw0Ny4yNDg0NzI4IFoiIGlkPSJBV1MtQ29kZUNvbW1pdF9JY29uXzY0X1NxdWlkIiBmaWxsPSIjRkZGRkZGIj48L3BhdGg+CiAgICA8L2c+Cjwvc3ZnPg==" parent="ulP-s_4zBE7rIFDbzlDe-48" vertex="1">
          <mxGeometry x="28" y="30" width="64" height="64" as="geometry" />
        </mxCell>
        <mxCell id="ulP-s_4zBE7rIFDbzlDe-4" value="Stage 1: Checkout" style="text;html=1;align=center;verticalAlign=middle;resizable=0;points=[];autosize=1;strokeColor=none;fillColor=none;" parent="ulP-s_4zBE7rIFDbzlDe-48" vertex="1">
          <mxGeometry width="120" height="30" as="geometry" />
        </mxCell>
        <mxCell id="ulP-s_4zBE7rIFDbzlDe-49" value="" style="group" parent="1" vertex="1" connectable="0">
          <mxGeometry x="668" y="420" width="180" height="94" as="geometry" />
        </mxCell>
        <mxCell id="ulP-s_4zBE7rIFDbzlDe-12" value="AWS CodeBuild&#xa;Manual approval" style="shape=image;verticalLabelPosition=bottom;verticalAlign=top;imageAspect=0;aspect=fixed;image=data:image/svg+xml,PD94bWwgdmVyc2lvbj0iMS4wIiBlbmNvZGluZz0iVVRGLTgiPz4KPHN2ZyB3aWR0aD0iODBweCIgaGVpZ2h0PSI4MHB4IiB2aWV3Qm94PSIwIDAgODAgODAiIHZlcnNpb249IjEuMSIgeG1sbnM9Imh0dHA6Ly93d3cudzMub3JnLzIwMDAvc3ZnIiB4bWxuczp4bGluaz0iaHR0cDovL3d3dy53My5vcmcvMTk5OS94bGluayI+CiAgICA8dGl0bGU+SWNvbi1BcmNoaXRlY3R1cmUvNjQvQXJjaF9BV1MtQ29kZUJ1aWxkXzY0PC90aXRsZT4KICAgIDxnIGlkPSJJY29uLUFyY2hpdGVjdHVyZS82NC9BcmNoX0FXUy1Db2RlQnVpbGRfNjQiIHN0cm9rZT0ibm9uZSIgc3Ryb2tlLXdpZHRoPSIxIiBmaWxsPSJub25lIiBmaWxsLXJ1bGU9ImV2ZW5vZGQiPgogICAgICAgIDxnIGlkPSJJY29uLUFyY2hpdGVjdHVyZS1CRy82NC9EZXZlbG9wZXItVG9vbHMiIGZpbGw9IiNDOTI1RDEiPgogICAgICAgICAgICA8cmVjdCBpZD0iUmVjdGFuZ2xlIiB4PSIwIiB5PSIwIiB3aWR0aD0iODAiIGhlaWdodD0iODAiPjwvcmVjdD4KICAgICAgICA8L2c+CiAgICAgICAgPHBhdGggZD0iTTY1LjQzOTYzMjksMjIgTDU5LjQ4NTUxNTIsMTYuNTQ5IEw1My41MjU0NDI0LDIyIEw2NS40Mzk2MzI5LDIyIFogTTU3LjIwMTczMDQsMTUuOTM4IEw0NS4xMjM3NzQzLDE1Ljk1NiBMNTEuNTc1MTQzNywyMS4wODMgTDU3LjIwMTczMDQsMTUuOTM4IFogTTUxLjc1NDc4OTYsMzMuNSBMNDIuMjQ4NDQ4NiwzNyBMNjAuNTM0NjA3MSwzNyBMNTEuNzU0Nzg5NiwzMy41IFogTTM3Ljc5Nzk5NjIsNTcgTDY0LjU5NTk5MjMsNTcgTDY0LjU5NTk5MjMsMzkgTDM3Ljc5Nzk5NjIsMzkgTDM3Ljc5Nzk5NjIsNTcgWiBNNDkuNTIyNjE1NywyMiBMNDIuOTM3MjU2MywxNi43NjYgTDM2LjM5NTU2NzcsMjIgTDQ5LjUyMjYxNTcsMjIgWiBNMzQuMzA5Mjk0MSwyMS4xMTUgTDQwLjc0ODc1MzMsMTUuOTYzIEwyNy45MTE1MjA2LDE1Ljk4MiBMMzQuMzA5Mjk0MSwyMS4xMTUgWiBNMzIuMjI1MDA1NSwyMiBMMjUuNjUyNTQ4OCwxNi43MjYgTDE5LjA4MDA5MjEsMjIgTDI4Ljg2NTMzMDgsMjIgTDMyLjIyNTAwNTUsMjIgWiBNMjcuODcyODEyNCwyNCBMMTkuODQyMzQ2MiwyNCBMMjcuODcyODEyNCwzMS45NjUgTDI3Ljg3MjgxMjQsMjQgWiBNMjcuODcyODEyNCwzNS4wODMgTDE4LjQ0Nzg1NzksNDMuNjY1IEwyNy44NzI4MTI0LDUyLjg4OSBMMjcuODcyODEyNCwzNS4wODMgWiBNMjcuODcyODEyNCw1Ni4xMzcgTDE3Ljk0NzYyODYsNjUuODM5IEwxNy45NDc2Mjg2LDY2IEwyNy44NzI4MTI0LDY2IEwyNy44NzI4MTI0LDU2LjEzNyBaIE0xNy45NDc2Mjg2LDQ1Ljk2MyBMMTcuOTQ3NjI4Niw2My4wNTMgTDI2LjY4Mzc3NTQsNTQuNTEzIEwxNy45NDc2Mjg2LDQ1Ljk2MyBaIE0xNy45NDc2Mjg2LDQxLjQyNCBMMjYuNjIwMjU0MiwzMy41MjggTDE3Ljk0NzYyODYsMjQuOTI4IEwxNy45NDc2Mjg2LDQxLjQyNCBaIE0xNi45NTUxMTAzLDIxLjE0OCBMMjMuMzg0NjQ0MywxNS45ODkgTDE2Ljk1NTExMDMsMTUuOTk5IEwxNi45NTUxMTAzLDIxLjE0OCBaIE0xNC45NzAwNzM1LDE0IEwxMi45ODUwMzY4LDE0IEwxMi45ODUwMzY4LDI0IEwxNC45NzAwNzM1LDI0IEwxNC45NzAwNzM1LDIzIEwxNC45NzAwNzM1LDE1IEwxNC45NzAwNzM1LDE0IFogTTY4LjkzMzI5NzYsMjMuMzYgQzY4Ljc4NTQxMjQsMjMuNzQ2IDY4LjQxNzE4ODEsMjQgNjguMDA3Mjc4LDI0IEw1Mi42ODU3NzE4LDI0IEw1Mi42ODU3NzE4LDMyIEw2NS45NjM2ODI3LDM3LjA3NCBMNjUuOTYyNjkwMSwzNy4wNzYgQzY2LjMyNTk1MTksMzcuMjI1IDY2LjU4MTAyOTEsMzcuNTgyIDY2LjU4MTAyOTEsMzggTDY2LjU4MTAyOTEsNTggQzY2LjU4MTAyOTEsNTguNTUyIDY2LjEzNzM3MzQsNTkgNjUuNTg4NTEwNyw1OSBMMzYuODA1NDc3OCw1OSBDMzYuMjU3NjA3Niw1OSAzNS44MTI5NTk0LDU4LjU1MiAzNS44MTI5NTk0LDU4IEwzNS44MTI5NTk0LDM4IEMzNS44MTI5NTk0LDM3LjU3MiAzNi4wODI5MjQ0LDM3LjIxMyAzNi40NTkwODg5LDM3LjA3MSBMMzYuNDU2MTExMywzNy4wNjQgTDUwLjcwMDczNTEsMzIgTDUwLjcwMDczNTEsMjQgTDI5Ljg1Nzg0OTIsMjQgTDI5Ljg1Nzg0OTIsNjcgQzI5Ljg1Nzg0OTIsNjcuNTUyIDI5LjQxNDE5MzQsNjggMjguODY1MzMwOCw2OCBMMTYuOTU1MTEwMyw2OCBDMTYuNDA3MjQwMSw2OCAxNS45NjI1OTE5LDY3LjU1MiAxNS45NjI1OTE5LDY3IEwxNS45NjI1OTE5LDI2IEwxMS45OTI1MTg0LDI2IEMxMS40NDQ2NDgyLDI2IDExLDI1LjU1MiAxMSwyNSBMMTEsMTMgQzExLDEyLjQ0OCAxMS40NDQ2NDgyLDEyIDExLjk5MjUxODQsMTIgTDE1Ljk2MjU5MTksMTIgQzE2LjUxMTQ1NDUsMTIgMTYuOTU1MTEwMywxMi40NDggMTYuOTU1MTEwMywxMyBMMTYuOTU1MTEwMywxMy45OTkgTDU5LjYzMzQwMDQsMTQgTDY4LjY3NTI0MjksMjIuMjYgQzY4Ljk3Nzk2MSwyMi41MzggNjkuMDgxMTgyOSwyMi45NzUgNjguOTMzMjk3NiwyMy4zNiBMNjguOTMzMjk3NiwyMy4zNiBaIE00OC4zMzk1MzM4LDU1LjMwOCBMNTQuMTE1OTkwOCw0Mi4wODMgTDUyLjI5OTY4MjIsNDEuMjc3IEw0Ni41MjMyMjUyLDU0LjUwMiBMNDguMzM5NTMzOCw1NS4zMDggWiBNNTMuNzY1NjMxOCw1MC44ODggTDU1LjA0ODk1ODEsNTIuNDE1IEw1OS4zMzY2Mzc1LDQ4Ljc1NyBDNTkuNTQ3MDUxMyw0OC41NzcgNTkuNjczMTAxMiw0OC4zMTYgNTkuNjg2MDAzOSw0OC4wMzkgQzU5LjY5ODkwNjcsNDcuNzYxIDU5LjU5NDY5MjIsNDcuNDkgNTkuNDAxMTUxMSw0Ny4yOTIgTDU1LjgyMjEyOTksNDMuNjMzIEw1NC40MDg3ODM3LDQ1LjAzOCBMNTcuMjM1NDc2LDQ3LjkyOCBMNTMuNzY1NjMxOCw1MC44ODggWiBNNDAuODcwODMzMSw0Ny45ODQgQzQwLjY1MjQ3OSw0Ny43ODMgNDAuNTM0MzY5Myw0Ny40OTMgNDAuNTUwMjQ5Niw0Ny4xOTUgQzQwLjU2NTEzNzQsNDYuODk2IDQwLjcxMzAyMjYsNDYuNjIxIDQwLjk1MTIyNyw0Ni40NDMgTDQ1LjgyMTUxNDcsNDIuODEyIEw0Ny4wMDI2MTE2LDQ0LjQxOSBMNDMuMTAwMDI5Myw0Ny4zMyBMNDYuMzc1MzQsNTAuMzU0IEw0NS4wMzM0NTUxLDUxLjgyOSBMNDAuODcwODMzMSw0Ny45ODQgWiIgaWQ9IkFXUy1Db2RlQnVpbGRfSWNvbl82NF9TcXVpZCIgZmlsbD0iI0ZGRkZGRiI+PC9wYXRoPgogICAgPC9nPgo8L3N2Zz4=" parent="ulP-s_4zBE7rIFDbzlDe-49" vertex="1">
          <mxGeometry x="58" y="30" width="64" height="64" as="geometry" />
        </mxCell>
        <mxCell id="ulP-s_4zBE7rIFDbzlDe-13" value="Stage 4: Review plan &amp;amp; costs" style="text;html=1;align=center;verticalAlign=middle;resizable=0;points=[];autosize=1;strokeColor=none;fillColor=none;" parent="ulP-s_4zBE7rIFDbzlDe-49" vertex="1">
          <mxGeometry width="180" height="30" as="geometry" />
        </mxCell>
        <mxCell id="ulP-s_4zBE7rIFDbzlDe-50" value="" style="group" parent="1" vertex="1" connectable="0">
          <mxGeometry x="860" y="420" width="100" height="94" as="geometry" />
        </mxCell>
        <mxCell id="ulP-s_4zBE7rIFDbzlDe-18" value="AWS CodeBuild&#xa;Terraform apply" style="shape=image;verticalLabelPosition=bottom;verticalAlign=top;imageAspect=0;aspect=fixed;image=data:image/svg+xml,PD94bWwgdmVyc2lvbj0iMS4wIiBlbmNvZGluZz0iVVRGLTgiPz4KPHN2ZyB3aWR0aD0iODBweCIgaGVpZ2h0PSI4MHB4IiB2aWV3Qm94PSIwIDAgODAgODAiIHZlcnNpb249IjEuMSIgeG1sbnM9Imh0dHA6Ly93d3cudzMub3JnLzIwMDAvc3ZnIiB4bWxuczp4bGluaz0iaHR0cDovL3d3dy53My5vcmcvMTk5OS94bGluayI+CiAgICA8dGl0bGU+SWNvbi1BcmNoaXRlY3R1cmUvNjQvQXJjaF9BV1MtQ29kZUJ1aWxkXzY0PC90aXRsZT4KICAgIDxnIGlkPSJJY29uLUFyY2hpdGVjdHVyZS82NC9BcmNoX0FXUy1Db2RlQnVpbGRfNjQiIHN0cm9rZT0ibm9uZSIgc3Ryb2tlLXdpZHRoPSIxIiBmaWxsPSJub25lIiBmaWxsLXJ1bGU9ImV2ZW5vZGQiPgogICAgICAgIDxnIGlkPSJJY29uLUFyY2hpdGVjdHVyZS1CRy82NC9EZXZlbG9wZXItVG9vbHMiIGZpbGw9IiNDOTI1RDEiPgogICAgICAgICAgICA8cmVjdCBpZD0iUmVjdGFuZ2xlIiB4PSIwIiB5PSIwIiB3aWR0aD0iODAiIGhlaWdodD0iODAiPjwvcmVjdD4KICAgICAgICA8L2c+CiAgICAgICAgPHBhdGggZD0iTTY1LjQzOTYzMjksMjIgTDU5LjQ4NTUxNTIsMTYuNTQ5IEw1My41MjU0NDI0LDIyIEw2NS40Mzk2MzI5LDIyIFogTTU3LjIwMTczMDQsMTUuOTM4IEw0NS4xMjM3NzQzLDE1Ljk1NiBMNTEuNTc1MTQzNywyMS4wODMgTDU3LjIwMTczMDQsMTUuOTM4IFogTTUxLjc1NDc4OTYsMzMuNSBMNDIuMjQ4NDQ4NiwzNyBMNjAuNTM0NjA3MSwzNyBMNTEuNzU0Nzg5NiwzMy41IFogTTM3Ljc5Nzk5NjIsNTcgTDY0LjU5NTk5MjMsNTcgTDY0LjU5NTk5MjMsMzkgTDM3Ljc5Nzk5NjIsMzkgTDM3Ljc5Nzk5NjIsNTcgWiBNNDkuNTIyNjE1NywyMiBMNDIuOTM3MjU2MywxNi43NjYgTDM2LjM5NTU2NzcsMjIgTDQ5LjUyMjYxNTcsMjIgWiBNMzQuMzA5Mjk0MSwyMS4xMTUgTDQwLjc0ODc1MzMsMTUuOTYzIEwyNy45MTE1MjA2LDE1Ljk4MiBMMzQuMzA5Mjk0MSwyMS4xMTUgWiBNMzIuMjI1MDA1NSwyMiBMMjUuNjUyNTQ4OCwxNi43MjYgTDE5LjA4MDA5MjEsMjIgTDI4Ljg2NTMzMDgsMjIgTDMyLjIyNTAwNTUsMjIgWiBNMjcuODcyODEyNCwyNCBMMTkuODQyMzQ2MiwyNCBMMjcuODcyODEyNCwzMS45NjUgTDI3Ljg3MjgxMjQsMjQgWiBNMjcuODcyODEyNCwzNS4wODMgTDE4LjQ0Nzg1NzksNDMuNjY1IEwyNy44NzI4MTI0LDUyLjg4OSBMMjcuODcyODEyNCwzNS4wODMgWiBNMjcuODcyODEyNCw1Ni4xMzcgTDE3Ljk0NzYyODYsNjUuODM5IEwxNy45NDc2Mjg2LDY2IEwyNy44NzI4MTI0LDY2IEwyNy44NzI4MTI0LDU2LjEzNyBaIE0xNy45NDc2Mjg2LDQ1Ljk2MyBMMTcuOTQ3NjI4Niw2My4wNTMgTDI2LjY4Mzc3NTQsNTQuNTEzIEwxNy45NDc2Mjg2LDQ1Ljk2MyBaIE0xNy45NDc2Mjg2LDQxLjQyNCBMMjYuNjIwMjU0MiwzMy41MjggTDE3Ljk0NzYyODYsMjQuOTI4IEwxNy45NDc2Mjg2LDQxLjQyNCBaIE0xNi45NTUxMTAzLDIxLjE0OCBMMjMuMzg0NjQ0MywxNS45ODkgTDE2Ljk1NTExMDMsMTUuOTk5IEwxNi45NTUxMTAzLDIxLjE0OCBaIE0xNC45NzAwNzM1LDE0IEwxMi45ODUwMzY4LDE0IEwxMi45ODUwMzY4LDI0IEwxNC45NzAwNzM1LDI0IEwxNC45NzAwNzM1LDIzIEwxNC45NzAwNzM1LDE1IEwxNC45NzAwNzM1LDE0IFogTTY4LjkzMzI5NzYsMjMuMzYgQzY4Ljc4NTQxMjQsMjMuNzQ2IDY4LjQxNzE4ODEsMjQgNjguMDA3Mjc4LDI0IEw1Mi42ODU3NzE4LDI0IEw1Mi42ODU3NzE4LDMyIEw2NS45NjM2ODI3LDM3LjA3NCBMNjUuOTYyNjkwMSwzNy4wNzYgQzY2LjMyNTk1MTksMzcuMjI1IDY2LjU4MTAyOTEsMzcuNTgyIDY2LjU4MTAyOTEsMzggTDY2LjU4MTAyOTEsNTggQzY2LjU4MTAyOTEsNTguNTUyIDY2LjEzNzM3MzQsNTkgNjUuNTg4NTEwNyw1OSBMMzYuODA1NDc3OCw1OSBDMzYuMjU3NjA3Niw1OSAzNS44MTI5NTk0LDU4LjU1MiAzNS44MTI5NTk0LDU4IEwzNS44MTI5NTk0LDM4IEMzNS44MTI5NTk0LDM3LjU3MiAzNi4wODI5MjQ0LDM3LjIxMyAzNi40NTkwODg5LDM3LjA3MSBMMzYuNDU2MTExMywzNy4wNjQgTDUwLjcwMDczNTEsMzIgTDUwLjcwMDczNTEsMjQgTDI5Ljg1Nzg0OTIsMjQgTDI5Ljg1Nzg0OTIsNjcgQzI5Ljg1Nzg0OTIsNjcuNTUyIDI5LjQxNDE5MzQsNjggMjguODY1MzMwOCw2OCBMMTYuOTU1MTEwMyw2OCBDMTYuNDA3MjQwMSw2OCAxNS45NjI1OTE5LDY3LjU1MiAxNS45NjI1OTE5LDY3IEwxNS45NjI1OTE5LDI2IEwxMS45OTI1MTg0LDI2IEMxMS40NDQ2NDgyLDI2IDExLDI1LjU1MiAxMSwyNSBMMTEsMTMgQzExLDEyLjQ0OCAxMS40NDQ2NDgyLDEyIDExLjk5MjUxODQsMTIgTDE1Ljk2MjU5MTksMTIgQzE2LjUxMTQ1NDUsMTIgMTYuOTU1MTEwMywxMi40NDggMTYuOTU1MTEwMywxMyBMMTYuOTU1MTEwMywxMy45OTkgTDU5LjYzMzQwMDQsMTQgTDY4LjY3NTI0MjksMjIuMjYgQzY4Ljk3Nzk2MSwyMi41MzggNjkuMDgxMTgyOSwyMi45NzUgNjguOTMzMjk3NiwyMy4zNiBMNjguOTMzMjk3NiwyMy4zNiBaIE00OC4zMzk1MzM4LDU1LjMwOCBMNTQuMTE1OTkwOCw0Mi4wODMgTDUyLjI5OTY4MjIsNDEuMjc3IEw0Ni41MjMyMjUyLDU0LjUwMiBMNDguMzM5NTMzOCw1NS4zMDggWiBNNTMuNzY1NjMxOCw1MC44ODggTDU1LjA0ODk1ODEsNTIuNDE1IEw1OS4zMzY2Mzc1LDQ4Ljc1NyBDNTkuNTQ3MDUxMyw0OC41NzcgNTkuNjczMTAxMiw0OC4zMTYgNTkuNjg2MDAzOSw0OC4wMzkgQzU5LjY5ODkwNjcsNDcuNzYxIDU5LjU5NDY5MjIsNDcuNDkgNTkuNDAxMTUxMSw0Ny4yOTIgTDU1LjgyMjEyOTksNDMuNjMzIEw1NC40MDg3ODM3LDQ1LjAzOCBMNTcuMjM1NDc2LDQ3LjkyOCBMNTMuNzY1NjMxOCw1MC44ODggWiBNNDAuODcwODMzMSw0Ny45ODQgQzQwLjY1MjQ3OSw0Ny43ODMgNDAuNTM0MzY5Myw0Ny40OTMgNDAuNTUwMjQ5Niw0Ny4xOTUgQzQwLjU2NTEzNzQsNDYuODk2IDQwLjcxMzAyMjYsNDYuNjIxIDQwLjk1MTIyNyw0Ni40NDMgTDQ1LjgyMTUxNDcsNDIuODEyIEw0Ny4wMDI2MTE2LDQ0LjQxOSBMNDMuMTAwMDI5Myw0Ny4zMyBMNDYuMzc1MzQsNTAuMzU0IEw0NS4wMzM0NTUxLDUxLjgyOSBMNDAuODcwODMzMSw0Ny45ODQgWiIgaWQ9IkFXUy1Db2RlQnVpbGRfSWNvbl82NF9TcXVpZCIgZmlsbD0iI0ZGRkZGRiI+PC9wYXRoPgogICAgPC9nPgo8L3N2Zz4=" parent="ulP-s_4zBE7rIFDbzlDe-50" vertex="1">
          <mxGeometry x="18" y="30" width="64" height="64" as="geometry" />
        </mxCell>
        <mxCell id="ulP-s_4zBE7rIFDbzlDe-19" value="Stage 5: Apply" style="text;html=1;align=center;verticalAlign=middle;resizable=0;points=[];autosize=1;strokeColor=none;fillColor=none;" parent="ulP-s_4zBE7rIFDbzlDe-50" vertex="1">
          <mxGeometry width="100" height="30" as="geometry" />
        </mxCell>
        <mxCell id="ulP-s_4zBE7rIFDbzlDe-56" style="edgeStyle=elbowEdgeStyle;rounded=0;orthogonalLoop=1;jettySize=auto;html=1;elbow=vertical;dashed=1;startArrow=classic;startFill=1;sourcePerimeterSpacing=35;" parent="1" source="ulP-s_4zBE7rIFDbzlDe-2" target="ulP-s_4zBE7rIFDbzlDe-37" edge="1">
          <mxGeometry relative="1" as="geometry">
            <mxPoint x="746" y="690" as="targetPoint" />
            <Array as="points">
              <mxPoint x="600" y="600" />
            </Array>
          </mxGeometry>
        </mxCell>
        <mxCell id="ulP-s_4zBE7rIFDbzlDe-71" value="&lt;font size=&quot;1&quot; color=&quot;#000000&quot;&gt;&lt;b style=&quot;font-size: 14px;&quot;&gt;1&lt;/b&gt;&lt;/font&gt;" style="ellipse;whiteSpace=wrap;html=1;aspect=fixed;fillStyle=solid;fillColor=#B3B3B3;strokeColor=#36393d;" parent="1" vertex="1">
          <mxGeometry x="140" y="450" width="20" height="20" as="geometry" />
        </mxCell>
        <mxCell id="ulP-s_4zBE7rIFDbzlDe-73" value="&lt;font size=&quot;1&quot; color=&quot;#000000&quot;&gt;&lt;b style=&quot;font-size: 14px;&quot;&gt;3&lt;/b&gt;&lt;/font&gt;" style="ellipse;whiteSpace=wrap;html=1;aspect=fixed;fillStyle=solid;fillColor=#B3B3B3;strokeColor=#36393d;" parent="1" vertex="1">
          <mxGeometry x="370.14" y="450" width="20" height="20" as="geometry" />
        </mxCell>
        <mxCell id="ulP-s_4zBE7rIFDbzlDe-74" value="&lt;font size=&quot;1&quot; color=&quot;#000000&quot;&gt;&lt;b style=&quot;font-size: 14px;&quot;&gt;4&lt;/b&gt;&lt;/font&gt;" style="ellipse;whiteSpace=wrap;html=1;aspect=fixed;fillStyle=solid;fillColor=#B3B3B3;strokeColor=#36393d;" parent="1" vertex="1">
          <mxGeometry x="520" y="450" width="20" height="20" as="geometry" />
        </mxCell>
        <mxCell id="ulP-s_4zBE7rIFDbzlDe-77" value="&lt;font size=&quot;1&quot; color=&quot;#000000&quot;&gt;&lt;b style=&quot;font-size: 14px;&quot;&gt;7&lt;/b&gt;&lt;/font&gt;" style="ellipse;whiteSpace=wrap;html=1;aspect=fixed;fillStyle=solid;fillColor=#B3B3B3;strokeColor=#36393d;" parent="1" vertex="1">
          <mxGeometry x="830" y="450" width="20" height="20" as="geometry" />
        </mxCell>
        <mxCell id="ulP-s_4zBE7rIFDbzlDe-72" value="&lt;font color=&quot;#000000&quot;&gt;&lt;span style=&quot;font-size: 14px;&quot;&gt;&lt;b&gt;2&lt;/b&gt;&lt;/span&gt;&lt;/font&gt;" style="ellipse;whiteSpace=wrap;html=1;aspect=fixed;fillStyle=solid;fillColor=#B3B3B3;strokeColor=#36393d;" parent="1" vertex="1">
          <mxGeometry x="460" y="360" width="20" height="20" as="geometry" />
        </mxCell>
        <mxCell id="ulP-s_4zBE7rIFDbzlDe-82" value="Region (eu-west-1)" style="points=[[0,0],[0.25,0],[0.5,0],[0.75,0],[1,0],[1,0.25],[1,0.5],[1,0.75],[1,1],[0.75,1],[0.5,1],[0.25,1],[0,1],[0,0.75],[0,0.5],[0,0.25]];outlineConnect=0;gradientColor=none;html=1;whiteSpace=wrap;fontSize=12;fontStyle=0;container=0;pointerEvents=0;collapsible=0;recursiveResize=0;shape=mxgraph.aws4.group;grIcon=mxgraph.aws4.group_region;strokeColor=#147EBA;fillColor=none;verticalAlign=top;align=left;spacingLeft=30;fontColor=#147EBA;dashed=1;" parent="1" vertex="1">
          <mxGeometry x="194" y="210" width="816" height="595" as="geometry" />
        </mxCell>
        <mxCell id="eRknMqQtl_QedWEwPYlO-23" style="edgeStyle=orthogonalEdgeStyle;rounded=0;orthogonalLoop=1;jettySize=auto;html=1;" parent="1" source="eRknMqQtl_QedWEwPYlO-3" target="ulP-s_4zBE7rIFDbzlDe-14" edge="1">
          <mxGeometry relative="1" as="geometry" />
        </mxCell>
        <mxCell id="eRknMqQtl_QedWEwPYlO-3" value="Amazon Simple Notification Service&#xa;(Amazon SNS)&#xa;Approver email subscription" style="shape=image;verticalLabelPosition=top;verticalAlign=bottom;imageAspect=0;aspect=fixed;image=data:image/svg+xml,PD94bWwgdmVyc2lvbj0iMS4wIiBlbmNvZGluZz0iVVRGLTgiPz4KPHN2ZyB3aWR0aD0iODBweCIgaGVpZ2h0PSI4MHB4IiB2aWV3Qm94PSIwIDAgODAgODAiIHZlcnNpb249IjEuMSIgeG1sbnM9Imh0dHA6Ly93d3cudzMub3JnLzIwMDAvc3ZnIiB4bWxuczp4bGluaz0iaHR0cDovL3d3dy53My5vcmcvMTk5OS94bGluayI+CiAgICA8dGl0bGU+SWNvbi1BcmNoaXRlY3R1cmUvNjQvQXJjaF9BbWF6b24tU2ltcGxlLU5vdGlmaWNhdGlvbi1TZXJ2aWNlXzY0PC90aXRsZT4KICAgIDxnIGlkPSJJY29uLUFyY2hpdGVjdHVyZS82NC9BcmNoX0FtYXpvbi1TaW1wbGUtTm90aWZpY2F0aW9uLVNlcnZpY2VfNjQiIHN0cm9rZT0ibm9uZSIgc3Ryb2tlLXdpZHRoPSIxIiBmaWxsPSJub25lIiBmaWxsLXJ1bGU9ImV2ZW5vZGQiPgogICAgICAgIDxnIGlkPSJJY29uLUFyY2hpdGVjdHVyZS1CRy82NC9BcHBsaWNhdGlvbi1JbnRlZ3JhdGlvbiIgZmlsbD0iI0U3MTU3QiI+CiAgICAgICAgICAgIDxyZWN0IGlkPSJSZWN0YW5nbGUiIHg9IjAiIHk9IjAiIHdpZHRoPSI4MCIgaGVpZ2h0PSI4MCI+PC9yZWN0PgogICAgICAgIDwvZz4KICAgICAgICA8cGF0aCBkPSJNMTcsMzggQzE4LjEwMywzOCAxOSwzOC44OTcgMTksNDAgQzE5LDQxLjEwMyAxOC4xMDMsNDIgMTcsNDIgQzE1Ljg5Nyw0MiAxNSw0MS4xMDMgMTUsNDAgQzE1LDM4Ljg5NyAxNS44OTcsMzggMTcsMzggTDE3LDM4IFogTTQxLDY0IEMyOS4zMTQsNjQgMTkuMjg5LDU1LjQ2NiAxNy4xOTQsNDMuOTggQzE4Ljk2NSw0My44OTQgMjAuNDI3LDQyLjY1OSAyMC44NTcsNDEgTDI3LDQxIEwyNywzOSBMMjAuODU3LDM5IEMyMC40MjcsMzcuMzQyIDE4Ljk2NiwzNi4xMDcgMTcuMTk1LDM2LjAyIEMxOS4yODUsMjQuNzEgMjkuNTExLDE2IDQxLDE2IEM0NS4zMTMsMTYgNDkuODMyLDE3LjYyMiA1NC40MjksMjAuODIxIEw1NS41NzEsMTkuMTc5IEM1MC42MzMsMTUuNzQzIDQ1LjczLDE0IDQxLDE0IEMyOC4yNywxNCAxNi45NDksMjMuODY1IDE1LjA2MywzNi41MjEgQzEzLjgzOSwzNy4yMDcgMTMsMzguNSAxMyw0MCBDMTMsNDEuNSAxMy44MzksNDIuNzkzIDE1LjA2Myw0My40NzggQzE2Ljk3LDU2LjM0MSAyOC4wNTYsNjYgNDEsNjYgQzQ2LjQwNyw2NiA1MS45NDIsNjQuMTU3IDU2LjU4NSw2MC44MTEgTDU1LjQxNSw1OS4xODkgQzUxLjExLDYyLjI5MiA0NS45OTEsNjQgNDEsNjQgTDQxLDY0IFogTTMwLjEwMSwzNi40NDIgQzMxLjk1NSwzNi44OTUgMzQuMjc1LDM3IDM2LDM3IEMzNy42NDIsMzcgMzkuODIzLDM2LjkwNSA0MS42MjksMzYuNTA2IEwzNy4xMDUsNDUuNTUzIEMzNy4wMzYsNDUuNjkxIDM3LDQ1Ljg0NSAzNyw0NiBMMzcsNTAuNDUzIEMzNi4xOTksNTAuOTY0IDM0LjgzMyw1MS44MTIgMzQsNTEuOTg2IEwzNCw0NiBDMzQsNDUuODY4IDMzLjk3NCw0NS43MzcgMzMuOTIzLDQ1LjYxNSBMMzAuMTAxLDM2LjQ0MiBaIE0zNiwzMyBDNDAuMDI1LDMzIDQyLjE3NCwzMy42MDQgNDIuODQxLDM0IEM0Mi4xNzQsMzQuMzk2IDQwLjAyNSwzNSAzNiwzNSBDMzEuOTc1LDM1IDI5LjgyNiwzNC4zOTYgMjkuMTU5LDM0IEMyOS44MjYsMzMuNjA0IDMxLjk3NSwzMyAzNiwzMyBMMzYsMzMgWiBNMzMsNTQgTDM0LDU0IEMzNC4wNDMsNTQgMzQuMDg2LDUzLjk5NyAzNC4xMjgsNTMuOTkyIEMzNS4zNTIsNTMuODMzIDM2LjkwOSw1Mi44ODcgMzguMjcyLDUyLjAxMyBMMzguNTM1LDUxLjg0NSBDMzguODI0LDUxLjY2MSAzOSw1MS4zNDIgMzksNTEgTDM5LDQ2LjIzNiBMNDQuNTU5LDM1LjEyIEM0NC44MzMsMzQuODAxIDQ1LDM0LjQzNCA0NSwzNCBDNDUsMzEuMzkgMzkuMzYxLDMxIDM2LDMxIEMzMi42MzksMzEgMjcsMzEuMzkgMjcsMzQgQzI3LDM0LjM2NiAyNy4xMiwzNC42ODQgMjcuMzIsMzQuOTY3IEwzMiw0Ni4yIEwzMiw1MyBDMzIsNTMuNTUyIDMyLjQ0Nyw1NCAzMyw1NCBMMzMsNTQgWiBNNjIsNTMgQzYzLjEwMyw1MyA2NCw1My44OTcgNjQsNTUgQzY0LDU2LjEwMyA2My4xMDMsNTcgNjIsNTcgQzYwLjg5Nyw1NyA2MCw1Ni4xMDMgNjAsNTUgQzYwLDUzLjg5NyA2MC44OTcsNTMgNjIsNTMgTDYyLDUzIFogTTYyLDIzIEM2My4xMDMsMjMgNjQsMjMuODk3IDY0LDI1IEM2NCwyNi4xMDMgNjMuMTAzLDI3IDYyLDI3IEM2MC44OTcsMjcgNjAsMjYuMTAzIDYwLDI1IEM2MCwyMy44OTcgNjAuODk3LDIzIDYyLDIzIEw2MiwyMyBaIE02NCwzOCBDNjUuMTAzLDM4IDY2LDM4Ljg5NyA2Niw0MCBDNjYsNDEuMTAzIDY1LjEwMyw0MiA2NCw0MiBDNjIuODk3LDQyIDYyLDQxLjEwMyA2Miw0MCBDNjIsMzguODk3IDYyLjg5NywzOCA2NCwzOCBMNjQsMzggWiBNNTQsNDEgTDYwLjE0Myw0MSBDNjAuNTg5LDQyLjcyIDYyLjE0Miw0NCA2NCw0NCBDNjYuMjA2LDQ0IDY4LDQyLjIwNiA2OCw0MCBDNjgsMzcuNzk0IDY2LjIwNiwzNiA2NCwzNiBDNjIuMTQyLDM2IDYwLjU4OSwzNy4yOCA2MC4xNDMsMzkgTDU0LDM5IEw1NCwyNiBMNTguMTQzLDI2IEM1OC41ODksMjcuNzIgNjAuMTQyLDI5IDYyLDI5IEM2NC4yMDYsMjkgNjYsMjcuMjA2IDY2LDI1IEM2NiwyMi43OTQgNjQuMjA2LDIxIDYyLDIxIEM2MC4xNDIsMjEgNTguNTg5LDIyLjI4IDU4LjE0MywyNCBMNTMsMjQgQzUyLjQ0NywyNCA1MiwyNC40NDggNTIsMjUgTDUyLDM5IEw0NSwzOSBMNDUsNDEgTDUyLDQxIEw1Miw1NSBDNTIsNTUuNTUyIDUyLjQ0Nyw1NiA1Myw1NiBMNTguMTQzLDU2IEM1OC41ODksNTcuNzIgNjAuMTQyLDU5IDYyLDU5IEM2NC4yMDYsNTkgNjYsNTcuMjA2IDY2LDU1IEM2Niw1Mi43OTQgNjQuMjA2LDUxIDYyLDUxIEM2MC4xNDIsNTEgNTguNTg5LDUyLjI4IDU4LjE0Myw1NCBMNTQsNTQgTDU0LDQxIFoiIGlkPSJBV1MtU2ltcGxlLU5vdGlmaWNhdGlvbi1TZXJ2aWNlX0ljb25fNjRfU3F1aWQiIGZpbGw9IiNGRkZGRkYiPjwvcGF0aD4KICAgIDwvZz4KPC9zdmc+;labelPosition=center;align=center;" parent="1" vertex="1">
          <mxGeometry x="870" y="270" width="64" height="64" as="geometry" />
        </mxCell>
        <mxCell id="eRknMqQtl_QedWEwPYlO-9" style="rounded=0;orthogonalLoop=1;jettySize=auto;html=1;edgeStyle=orthogonalEdgeStyle;entryX=0.465;entryY=0.022;entryDx=0;entryDy=0;entryPerimeter=0;" parent="1" source="eRknMqQtl_QedWEwPYlO-4" target="ulP-s_4zBE7rIFDbzlDe-13" edge="1">
          <mxGeometry relative="1" as="geometry">
            <mxPoint x="752" y="420" as="targetPoint" />
          </mxGeometry>
        </mxCell>
        <mxCell id="eRknMqQtl_QedWEwPYlO-22" style="edgeStyle=orthogonalEdgeStyle;rounded=0;orthogonalLoop=1;jettySize=auto;html=1;sourcePerimeterSpacing=0;" parent="1" source="eRknMqQtl_QedWEwPYlO-4" target="eRknMqQtl_QedWEwPYlO-3" edge="1">
          <mxGeometry relative="1" as="geometry" />
        </mxCell>
        <mxCell id="eRknMqQtl_QedWEwPYlO-4" value="AWS Lambda&#xa;Auto-approve function" style="shape=image;verticalLabelPosition=top;verticalAlign=bottom;imageAspect=0;aspect=fixed;image=data:image/svg+xml,PD94bWwgdmVyc2lvbj0iMS4wIiBlbmNvZGluZz0iVVRGLTgiPz4KPHN2ZyB3aWR0aD0iODBweCIgaGVpZ2h0PSI4MHB4IiB2aWV3Qm94PSIwIDAgODAgODAiIHZlcnNpb249IjEuMSIgeG1sbnM9Imh0dHA6Ly93d3cudzMub3JnLzIwMDAvc3ZnIiB4bWxuczp4bGluaz0iaHR0cDovL3d3dy53My5vcmcvMTk5OS94bGluayI+CiAgICA8dGl0bGU+SWNvbi1BcmNoaXRlY3R1cmUvNjQvQXJjaF9BV1MtTGFtYmRhXzY0PC90aXRsZT4KICAgIDxnIGlkPSJJY29uLUFyY2hpdGVjdHVyZS82NC9BcmNoX0FXUy1MYW1iZGFfNjQiIHN0cm9rZT0ibm9uZSIgc3Ryb2tlLXdpZHRoPSIxIiBmaWxsPSJub25lIiBmaWxsLXJ1bGU9ImV2ZW5vZGQiPgogICAgICAgIDxnIGlkPSJJY29uLUFyY2hpdGVjdHVyZS1CRy82NC9Db21wdXRlIiBmaWxsPSIjRUQ3MTAwIj4KICAgICAgICAgICAgPHJlY3QgaWQ9IlJlY3RhbmdsZSIgeD0iMCIgeT0iMCIgd2lkdGg9IjgwIiBoZWlnaHQ9IjgwIj48L3JlY3Q+CiAgICAgICAgPC9nPgogICAgICAgIDxwYXRoIGQ9Ik0yOC4wMDc1MzUyLDY2IEwxNS41OTA3Mjc0LDY2IEwyOS4zMjM1ODg1LDM3LjI5NiBMMzUuNTQ2MDI0OSw1MC4xMDYgTDI4LjAwNzUzNTIsNjYgWiBNMzAuMjE5NjY3NCwzNC41NTMgQzMwLjA1MTI3NjgsMzQuMjA4IDI5LjcwMDQ2MjksMzMuOTg5IDI5LjMxNzU3NDUsMzMuOTg5IEwyOS4zMTQ1Njc2LDMzLjk4OSBDMjguOTI4NjcyMywzMy45OSAyOC41Nzc4NTgzLDM0LjIxMSAyOC40MTI0NzQ2LDM0LjU1OCBMMTMuMDk3OTQ0LDY2LjU2OSBDMTIuOTQ5NTk5OSw2Ni44NzkgMTIuOTcwNjQ4Nyw2Ny4yNDMgMTMuMTU1MDc2Niw2Ny41MzQgQzEzLjMzNzQ5OTgsNjcuODI0IDEzLjY1ODI0MzksNjggMTQuMDAyMDQxNiw2OCBMMjguNjQyMDA3Miw2OCBDMjkuMDI5OTA3MSw2OCAyOS4zODE3MjM0LDY3Ljc3NyAyOS41NDgxMDk0LDY3LjQyOCBMMzcuNTYzNzA2LDUwLjUyOCBDMzcuNjkzMDA2LDUwLjI1NCAzNy42OTIwMDM3LDQ5LjkzNyAzNy41NTg2OTQ0LDQ5LjY2NSBMMzAuMjE5NjY3NCwzNC41NTMgWiBNNjQuOTk1MzQ5MSw2NiBMNTIuNjU4NzI3NCw2NiBMMzIuODY2ODA5LDI0LjU3IEMzMi43MDE0MjUzLDI0LjIyMiAzMi4zNDg2MDY3LDI0IDMxLjk2MTcwOTEsMjQgTDIzLjg4OTk4MjIsMjQgTDIzLjg5OTAwMzEsMTQgTDM5LjcxOTcwODEsMTQgTDU5LjQyMDQxNDksNTUuNDI5IEM1OS41ODU3OTg2LDU1Ljc3NyA1OS45Mzg2MTcyLDU2IDYwLjMyNTUxNDgsNTYgTDY0Ljk5NTM0OTEsNTYgTDY0Ljk5NTM0OTEsNjYgWiBNNjUuOTk3Njc0NSw1NCBMNjAuOTU5OTg2OCw1NCBMNDEuMjU5MjgsMTIuNTcxIEM0MS4wOTM4OTYzLDEyLjIyMyA0MC43NDEwNzc3LDEyIDQwLjM1MzE3NzgsMTIgTDIyLjg5NzY4LDEyIEMyMi4zNDUzOTg3LDEyIDIxLjg5NjM1NjksMTIuNDQ3IDIxLjg5NTM1NDUsMTIuOTk5IEwyMS44ODQzMjksMjQuOTk5IEMyMS44ODQzMjksMjUuMjY1IDIxLjk4ODU3MDgsMjUuNTE5IDIyLjE3ODAxMDMsMjUuNzA3IEMyMi4zNjU0NDUyLDI1Ljg5NSAyMi42MjAwMzU4LDI2IDIyLjg4NjY1NDQsMjYgTDMxLjMyOTI0MTcsMjYgTDUxLjEyMjE2MjUsNjcuNDMgQzUxLjI4ODU0ODUsNjcuNzc4IDUxLjYzOTM2MjQsNjggNTIuMDI2MjYsNjggTDY1Ljk5NzY3NDUsNjggQzY2LjU1MTk2MDUsNjggNjcsNjcuNTUyIDY3LDY3IEw2Nyw1NSBDNjcsNTQuNDQ4IDY2LjU1MTk2MDUsNTQgNjUuOTk3Njc0NSw1NCBMNjUuOTk3Njc0NSw1NCBaIiBpZD0iQVdTLUxhbWJkYV9JY29uXzY0X1NxdWlkIiBmaWxsPSIjRkZGRkZGIj48L3BhdGg+CiAgICA8L2c+Cjwvc3ZnPg==;labelPosition=center;align=center;" parent="1" vertex="1">
          <mxGeometry x="720" y="270" width="64" height="64" as="geometry" />
        </mxCell>
        <mxCell id="eRknMqQtl_QedWEwPYlO-10" value="" style="sketch=0;outlineConnect=0;fontColor=#232F3E;gradientColor=none;fillColor=#DD344C;strokeColor=none;dashed=0;verticalLabelPosition=bottom;verticalAlign=top;align=center;html=1;fontSize=12;fontStyle=0;aspect=fixed;shape=mxgraph.aws4.email;" parent="1" vertex="1">
          <mxGeometry x="1057.39" y="309.5" width="22.61" height="20" as="geometry" />
        </mxCell>
        <mxCell id="eRknMqQtl_QedWEwPYlO-12" value="&lt;font size=&quot;1&quot; color=&quot;#000000&quot;&gt;&lt;b style=&quot;font-size: 12px;&quot;&gt;6.3&lt;/b&gt;&lt;/font&gt;" style="ellipse;whiteSpace=wrap;html=1;aspect=fixed;fillStyle=solid;fillColor=#B3B3B3;strokeColor=#36393d;" parent="1" vertex="1">
          <mxGeometry x="810" y="274.5" width="20" height="20" as="geometry" />
        </mxCell>
        <mxCell id="eRknMqQtl_QedWEwPYlO-19" style="rounded=0;orthogonalLoop=1;jettySize=auto;html=1;" parent="1" source="eRknMqQtl_QedWEwPYlO-18" target="eRknMqQtl_QedWEwPYlO-4" edge="1">
          <mxGeometry relative="1" as="geometry" />
        </mxCell>
        <mxCell id="eRknMqQtl_QedWEwPYlO-18" value="Amazon Simple Queue Service&#xa;(Amazon SQS)&#xa;Auto-approve queue" style="shape=image;verticalLabelPosition=top;verticalAlign=bottom;imageAspect=0;aspect=fixed;image=data:image/svg+xml,PD94bWwgdmVyc2lvbj0iMS4wIiBlbmNvZGluZz0iVVRGLTgiPz4KPHN2ZyB3aWR0aD0iODBweCIgaGVpZ2h0PSI4MHB4IiB2aWV3Qm94PSIwIDAgODAgODAiIHZlcnNpb249IjEuMSIgeG1sbnM9Imh0dHA6Ly93d3cudzMub3JnLzIwMDAvc3ZnIiB4bWxuczp4bGluaz0iaHR0cDovL3d3dy53My5vcmcvMTk5OS94bGluayI+CiAgICA8dGl0bGU+SWNvbi1BcmNoaXRlY3R1cmUvNjQvQXJjaF9BbWF6b24tU2ltcGxlLVF1ZXVlLVNlcnZpY2VfNjQ8L3RpdGxlPgogICAgPGcgaWQ9Ikljb24tQXJjaGl0ZWN0dXJlLzY0L0FyY2hfQW1hem9uLVNpbXBsZS1RdWV1ZS1TZXJ2aWNlXzY0IiBzdHJva2U9Im5vbmUiIHN0cm9rZS13aWR0aD0iMSIgZmlsbD0ibm9uZSIgZmlsbC1ydWxlPSJldmVub2RkIj4KICAgICAgICA8ZyBpZD0iSWNvbi1BcmNoaXRlY3R1cmUtQkcvNjQvQXBwbGljYXRpb24tSW50ZWdyYXRpb24iIGZpbGw9IiNFNzE1N0IiPgogICAgICAgICAgICA8cmVjdCBpZD0iUmVjdGFuZ2xlIiB4PSIwIiB5PSIwIiB3aWR0aD0iODAiIGhlaWdodD0iODAiPjwvcmVjdD4KICAgICAgICA8L2c+CiAgICAgICAgPHBhdGggZD0iTTI4LjcxNjk5NjYsNDMuNjg3Njc1NiBMMzEuNzE4OTI2NSw0MC43MjE4MjYgQzMxLjkwNzA0NzQsNDAuNTM1OTAxMSAzMi4wMTMxMTU2LDQwLjI4MzM2MTQgMzIuMDE0MTIzMyw0MC4wMTk4ODUgQzMyLjAxNTExNjksMzkuNzU2NDA4NiAzMS45MTAwNDkzLDM5LjUwMjg3NDcgMzEuNzIyOTI5LDM5LjMxNTk1NTYgTDI4LjcyMDk5OTIsMzYuMzE2MzAxNCBMMjcuMzAyMDg3MSwzNy43MTgxOTQ4IEwyOC41ODk5MTQ5LDM5LjAwNTc0OTQgTDI0LjAwODk3MDEsMzkuMDA1NzQ5NCBMMjQuMDA4OTcwMSw0MC45OTQyNTA2IEwyOC42MDU5MjUyLDQwLjk5NDI1MDYgTDI3LjMwNjA4OTYsNDIuMjc3ODI4MiBMMjguNzE2OTk2Niw0My42ODc2NzU2IFogTTUxLjYyNzcyNSw0My43NzgxNTI0IEw1NS42MzAyOTgsNDAuNzkzNDEyIEM1NS44ODA0NTg5LDQwLjYwNTQ5ODYgNTYuMDI5NTU0Nyw0MC4zMTEyMDA0IDU2LjAyOTU1NDcsMzkuOTk5MDA1NyBDNTYuMDI5NTU0NywzOS42ODU4MTY4IDU1Ljg4MDQ1ODksMzkuMzkwNTI0NCA1NS42MjkyOTc0LDM5LjIwMjYxMSBMNTEuNjI2NzI0MywzNi4yMjE4NDc2IEw1MC40MjU5NTI0LDM3LjgxMjY0ODYgTDUyLjAyNjk4MTYsMzkuMDA1NzQ5NCBMNDguMDI0NDA4NSwzOS4wMDU3NDk0IEw0OC4wMjQ0MDg1LDQwLjk5NDI1MDYgTDUyLjAyNTk4MSw0MC45OTQyNTA2IEw1MC40MjQ5NTE4LDQyLjE4NzM1MTQgTDUxLjYyNzcyNSw0My43NzgxNTI0IFogTTM1LjIwODE2OTUsNDAgQzM1LjIwODE2OTUsNDIuMTEwNzk0MSAzNC44NDI5MzQ3LDQ0LjEwMTI4MzkgMzQuMTYwNDk2LDQ1LjgzMzI2ODUgQzM1Ljk2MDY1MzMsNDUuMTQxMjcgMzcuOTkwOTU4NSw0NC43OTUyNzA4IDQwLjAxOTI2MjQsNDQuNzk1MjcwOCBDNDIuMDQ3NTY2Myw0NC43OTUyNzA4IDQ0LjA3Nzg3MTUsNDUuMTQxMjcgNDUuODc3MDI4MSw0NS44MzMyNjg1IEM0NS4xOTU1OSw0NC4xMDEyODM5IDQ0LjgzMDM1NTIsNDIuMTEwNzk0MSA0NC44MzAzNTUyLDQwIEM0NC44MzAzNTUyLDM3Ljg4OTIwNTkgNDUuMTk1NTksMzUuODk5NzEwNCA0NS44NzcwMjgxLDM0LjE2NjczMTUgQzQyLjI3NzcxNDIsMzUuNTQ5NzM0MSAzNy43NjA4MTA1LDM1LjU0OTczNDEgMzQuMTYwNDk2LDM0LjE2NjczMTUgQzM0Ljg0MjkzNDcsMzUuODk5NzEwNCAzNS4yMDgxNjk1LDM3Ljg4OTIwNTkgMzUuMjA4MTY5NSw0MCBMMzUuMjA4MTY5NSw0MCBaIE0zMC4zMDYwMTgyLDQ5LjY1MTE5MDkgQzMwLjExMDg5MjcsNDkuNDU3MzEyMSAzMC4wMTI4Mjk3LDQ5LjIwMjc4MzkgMzAuMDEyODI5Nyw0OC45NDgyNTU3IEMzMC4wMTI4Mjk3LDQ4LjY5MzcyNzYgMzAuMTEwODkyNyw0OC40MzkxOTk0IDMwLjMwNjAxODIsNDguMjQ1MzIwNSBDMzIuMTIyMTg1Nyw0Ni40NDA3NTU2IDMzLjIwNjg4Myw0My4zNTc1ODQ0IDMzLjIwNjg4Myw0MCBDMzMuMjA2ODgzLDM2LjY0MjQxNTYgMzIuMTIyMTg1NywzMy41NTkyNDQ0IDMwLjMwNjAxODIsMzEuNzU0Njc5NSBDMzAuMTEwODkyNywzMS41NjA4MDA2IDMwLjAxMjgyOTcsMzEuMzA2MjcyNCAzMC4wMTI4Mjk3LDMxLjA1MTc0NDMgQzMwLjAxMjgyOTcsMzAuNzk3MjE2MSAzMC4xMTA4OTI3LDMwLjU0MjY4NzkgMzAuMzA2MDE4MiwzMC4zNDg4MDkxIEMzMC42OTcyNjk3LDI5Ljk2MDA1NzEgMzEuMzI5Njc2MiwyOS45NjAwNTcxIDMxLjcyMDkyNzcsMzAuMzQ4ODA5MSBDMzUuNTk4NDIwNCwzNC4yMDE1MzAzIDQ0LjQ0MDEwNDQsMzQuMjAxNTMwMyA0OC4zMTc1OTcsMzAuMzQ4ODA5MSBDNDguNzA4ODQ4NSwyOS45NjAwNTcxIDQ5LjM0MTI1NTEsMjkuOTYwMDU3MSA0OS43MzI1MDY2LDMwLjM0ODgwOTEgQzQ5LjkyNzYzMiwzMC41NDI2ODc5IDUwLjAyNTY5NTEsMzAuNzk3MjE2MSA1MC4wMjU2OTUxLDMxLjA1MTc0NDMgQzUwLjAyNTY5NTEsMzEuMzA2MjcyNCA0OS45Mjc2MzIsMzEuNTYwODAwNiA0OS43MzI1MDY2LDMxLjc1NDY3OTUgQzQ3LjkxNjMzOTEsMzMuNTU5MjQ0NCA0Ni44MzE2NDE4LDM2LjY0MjQxNTYgNDYuODMxNjQxOCw0MCBDNDYuODMxNjQxOCw0My4zNTc1ODQ0IDQ3LjkxNjMzOTEsNDYuNDQwNzU1NiA0OS43MzI1MDY2LDQ4LjI0NTMyMDUgQzQ5LjkyNzYzMiw0OC40MzkxOTk0IDUwLjAyNTY5NTEsNDguNjkzNzI3NiA1MC4wMjU2OTUxLDQ4Ljk0ODI1NTcgQzUwLjAyNTY5NTEsNDkuMjAyNzgzOSA0OS45Mjc2MzIsNDkuNDU3MzEyMSA0OS43MzI1MDY2LDQ5LjY1MTE5MDkgQzQ5LjUzNzM4MTIsNDkuODQ1MDY5OCA0OS4yODEyMTY1LDQ5Ljk0MjUwNjQgNDkuMDI1MDUxOCw0OS45NDI1MDY0IEM0OC43Njg4ODcxLDQ5Ljk0MjUwNjQgNDguNTEyNzIyNSw0OS44NDUwNjk4IDQ4LjMxNzU5Nyw0OS42NTExOTA5IEM0NC40NDAxMDQ0LDQ1Ljc5ODQ2OTcgMzUuNTk4NDIwNCw0NS43OTg0Njk3IDMxLjcyMDkyNzcsNDkuNjUxMTkwOSBDMzEuMzI5Njc2Miw1MC4wMzk5NDI5IDMwLjY5NzI2OTcsNTAuMDM5OTQyOSAzMC4zMDYwMTgyLDQ5LjY1MTE5MDkgTDMwLjMwNjAxODIsNDkuNjUxMTkwOSBaIE02Ni4wMDA5NjQ5LDQwLjAwNDk3MTMgQzY2LjAwMDk2NDksMzkuMDc4MzI5NyA2NS42Mzc3MzE0LDM4LjIwNzM2NjEgNjQuOTc4MzA3NSwzNy41NTIxNTQ5IEM2NC4yOTc4NzAxLDM2Ljg3NTA3MDIgNjMuNDAzMjk1LDM2LjUzODAxOTMgNjIuNTA5NzIwNSwzNi41MzgwMTkzIEM2MS42MTYxNDYxLDM2LjUzODAxOTMgNjAuNzIxNTcxLDM2Ljg3NTA3MDIgNjAuMDQxMTMzNiwzNy41NTIxNTQ5IEM1OC42NzkyNTgxLDM4LjkwNDMzNTggNTguNjc5MjU4MSw0MS4xMDQ2MTI1IDYwLjA0MTEzMzYsNDIuNDU3Nzg3NiBDNjEuNDAyMDA4NCw0My44MDk5Njg0IDYzLjYxNTQzMTMsNDMuODEwOTYyNyA2NC45NzgzMDc1LDQyLjQ1Nzc4NzYgQzY1LjYzNzczMTQsNDEuODAyNTc2NCA2Ni4wMDA5NjQ5LDQwLjkzMTYxMjggNjYuMDAwOTY0OSw0MC4wMDQ5NzEzIEw2Ni4wMDA5NjQ5LDQwLjAwNDk3MTMgWiBNNjYuMzkzMjE3MSw0My44NjM2NTggQzY1LjMyMjUyODgsNDQuOTI3NTA2MiA2My45MTY2MjUsNDUuNDU5NDMwMyA2Mi41MDk3MjA1LDQ1LjQ1OTQzMDMgQzYxLjEwMjgxNjEsNDUuNDU5NDMwMyA1OS42OTY5MTIzLDQ0LjkyNzUwNjIgNTguNjI2MjI0LDQzLjg2MzY1OCBDNTYuNDgzODQ2OCw0MS43MzU5NjE2IDU2LjQ4Mzg0NjgsMzguMjczOTgwOSA1OC42MjYyMjQsMzYuMTQ2Mjg0NSBDNjAuNzY4NjAxMiwzNC4wMTY1OTk3IDY0LjI1Mjg0MTEsMzQuMDE4NTg4MiA2Ni4zOTMyMTcxLDM2LjE0NjI4NDUgQzY4LjUzNTU5NDMsMzguMjczOTgwOSA2OC41MzU1OTQzLDQxLjczNTk2MTYgNjYuMzkzMjE3MSw0My44NjM2NTggTDY2LjM5MzIxNzEsNDMuODYzNjU4IFogTTIwLjk4MDAyMjksNDAuMDI3ODM5IEMyMC45ODAwMjI5LDM5LjEwMTE5NzQgMjAuNjE2Nzg5NCwzOC4yMzAyMzM5IDE5Ljk1NzM2NTQsMzcuNTc1MDIyNyBDMTkuMjk3OTQxNSwzNi45MTk4MTE1IDE4LjQyMTM3OCwzNi41NTg4OTg1IDE3LjQ4ODc3ODUsMzYuNTU4ODk4NSBDMTYuNTU3MTc5NiwzNi41NTg4OTg1IDE1LjY4MDYxNjEsMzYuOTE5ODExNSAxNS4wMjAxOTE2LDM3LjU3NTAyMjcgQzE0LjM2MDc2NzYsMzguMjMwMjMzOSAxMy45OTg1MzQ4LDM5LjEwMTE5NzQgMTMuOTk4NTM0OCw0MC4wMjc4MzkgQzEzLjk5ODUzNDgsNDAuOTUzNDg2NCAxNC4zNjA3Njc2LDQxLjgyNDQ0OTkgMTUuMDIwMTkxNiw0Mi40ODA2NTUzIEMxNi4zNDAwNCw0My43OTAwODM0IDE4LjYzODUxNzYsNDMuNzkwMDgzNCAxOS45NTczNjU0LDQyLjQ4MDY1NTMgQzIwLjYxNjc4OTQsNDEuODI0NDQ5OSAyMC45ODAwMjI5LDQwLjk1MzQ4NjQgMjAuOTgwMDIyOSw0MC4wMjc4MzkgTDIwLjk4MDAyMjksNDAuMDI3ODM5IFogTTIxLjM3MjI3NSw0My44ODY1MjU3IEMyMC4zMDE1ODY3LDQ0Ljk1MDM3MzkgMTguODk1NjgyOSw0NS40ODIyOTggMTcuNDg4Nzc4NSw0NS40ODIyOTggQzE2LjA4Mjg3NDcsNDUuNDgyMjk4IDE0LjY3Njk3MDksNDQuOTUwMzczOSAxMy42MDUyODIsNDMuODg2NTI1NyBDMTEuNDY0OTA2LDQxLjc1ODgyOTQgMTEuNDY0OTA2LDM4LjI5Njg0ODcgMTMuNjA1MjgyLDM2LjE2OTE1MjMgQzE1Ljc0NzY1OTIsMzQuMDQxNDU1OSAxOS4yMzA4OTg0LDM0LjA0MTQ1NTkgMjEuMzcyMjc1LDM2LjE2OTE1MjMgQzIzLjUxMzY1MTYsMzguMjk2ODQ4NyAyMy41MTM2NTE2LDQxLjc1ODgyOTQgMjEuMzcyMjc1LDQzLjg4NjUyNTcgTDIxLjM3MjI3NSw0My44ODY1MjU3IFogTTU0Ljg5NTgyNTksNTQuODU2MDkzIEM1MC45MDEyNTgsNTguODI2MTM1OCA0NS41ODg4NDI4LDYxLjAxMTQ5ODcgMzkuOTM5MjEwOSw2MS4wMTE0OTg3IEMzNC4yODc1Nzc3LDYxLjAxMTQ5ODcgMjguOTc2MTYzMiw1OC44MjYxMzU4IDI0Ljk4MTU5NTMsNTQuODU2MDkzIEMyMi4yNDE4MzQsNTIuMTM0ODI5IDIwLjczMzg2NDYsNDguODgyNjM1MiAxOS45NTEzNjE2LDQ2LjYzNDYzNDUgTDE4LjA2MDE0NTgsNDcuMjg0ODc0NCBDMTguOTExNjkzMiw0OS43MzA3MzEgMjAuNTU3NzUxNCw1My4yNzMyNDYgMjMuNTY2Njg1Nyw1Ni4yNjE5NjM0IEMyNy45Mzk0OTY4LDYwLjYwNzgzMyAzMy43NTMyMzQyLDYzIDM5LjkzOTIxMDksNjMgQzQ2LjEyNDE4Nyw2MyA1MS45Mzc5MjQ0LDYwLjYwNzgzMyA1Ni4zMTA3MzU1LDU2LjI2MTk2MzQgQzU4LjgzNzM1OTcsNTMuNzUzNDY5MSA2MC44NDk2NTMzLDUwLjU2MzkxMyA2MS45NzkzNzk2LDQ3LjI4MTg5MTcgTDYwLjA4NjE2MjUsNDYuNjM3NjE3MyBDNTkuMDUzNDk4Nyw0OS42MzgyNjU3IDU3LjIxMDMxMzgsNTIuNTU3Mzg1NiA1NC44OTU4MjU5LDU0Ljg1NjA5MyBMNTQuODk1ODI1OSw1NC44NTYwOTMgWiBNMTkuOTUwMzYwOSwzMy4zNjYzNTk3IEwxOC4wNjExNDY1LDMyLjcxNDEzMTMgQzE5LjI3MTkyNDgsMjkuMjUwMTYyMSAyMS4yMjkxODMsMjYuMDYwNjA2MSAyMy41NzI2ODk2LDIzLjczMzA2NTMgQzI3Ljk0MzQ5OTQsMTkuMzkxMTcyOCAzMy43NTUyMzU1LDE3IDM5LjkzOTIxMDksMTcgQzQ2LjEyMzE4NjMsMTcgNTEuOTM0OTIyNSwxOS4zOTExNzI4IDU2LjMwNDczMTYsMjMuNzMzMDY1MyBDNTguNzcxMzE3MywyNi4xODM4OTMxIDYwLjgzOTY0NjksMjkuNDU2OTY2MiA2MS45NzczNzgzLDMyLjcxNDEzMTMgTDYwLjA4ODE2MzgsMzMuMzY2MzU5NyBDNTkuMDQ0NDkyOSwzMC4zODM2MDc4IDU3LjE1MDI3NTIsMjcuMzg0OTQ3OSA1NC44ODk4MjIsMjUuMTM4OTM1NyBDNTAuODk4MjU2LDIxLjE3MTg3NTcgNDUuNTg3ODQyMiwxOC45ODg1MDEzIDM5LjkzOTIxMDksMTguOTg4NTAxMyBDMzQuMjg5NTc5LDE4Ljk4ODUwMTMgMjguOTgwMTY1OCwyMS4xNzE4NzU3IDI0Ljk4NzU5OTIsMjUuMTM4OTM1NyBDMjIuODU0MjI3NywyNy4yNTk2NzIzIDIxLjA2NTA3NzUsMzAuMTgxNzc1IDE5Ljk1MDM2MDksMzMuMzY2MzU5NyBMMTkuOTUwMzYwOSwzMy4zNjYzNTk3IFoiIGlkPSJBV1MtU2ltcGxlLVF1ZXVlLVNlcnZpY2VfSWNvbl82NF9TcXVpZCIgZmlsbD0iI0ZGRkZGRiI+PC9wYXRoPgogICAgPC9nPgo8L3N2Zz4=;labelPosition=center;align=center;" parent="1" vertex="1">
          <mxGeometry x="574" y="270" width="64" height="64" as="geometry" />
        </mxCell>
        <mxCell id="eRknMqQtl_QedWEwPYlO-24" value="&lt;font size=&quot;1&quot; color=&quot;#000000&quot;&gt;&lt;b style=&quot;font-size: 12px;&quot;&gt;6.1&lt;/b&gt;&lt;/font&gt;" style="ellipse;whiteSpace=wrap;html=1;aspect=fixed;fillStyle=solid;fillColor=#B3B3B3;strokeColor=#36393d;" parent="1" vertex="1">
          <mxGeometry x="660" y="274.5" width="20" height="20" as="geometry" />
        </mxCell>
        <mxCell id="eRknMqQtl_QedWEwPYlO-26" value="&lt;font size=&quot;1&quot; color=&quot;#000000&quot;&gt;&lt;b style=&quot;font-size: 12px;&quot;&gt;6.2&lt;/b&gt;&lt;/font&gt;" style="ellipse;whiteSpace=wrap;html=1;aspect=fixed;fillStyle=solid;fillColor=#B3B3B3;strokeColor=#36393d;" parent="1" vertex="1">
          <mxGeometry x="730" y="340" width="20" height="20" as="geometry" />
        </mxCell>
        <mxCell id="eRknMqQtl_QedWEwPYlO-27" value="&lt;font size=&quot;1&quot; color=&quot;#000000&quot;&gt;&lt;b style=&quot;font-size: 12px;&quot;&gt;6.4&lt;/b&gt;&lt;/font&gt;" style="ellipse;whiteSpace=wrap;html=1;aspect=fixed;fillStyle=solid;fillColor=#B3B3B3;strokeColor=#36393d;" parent="1" vertex="1">
          <mxGeometry x="1058.7" y="274.5" width="20" height="20" as="geometry" />
        </mxCell>
        <mxCell id="eRknMqQtl_QedWEwPYlO-28" value="&lt;font size=&quot;1&quot; color=&quot;#000000&quot;&gt;&lt;b style=&quot;font-size: 12px;&quot;&gt;6.5&lt;/b&gt;&lt;/font&gt;" style="ellipse;whiteSpace=wrap;html=1;aspect=fixed;fillStyle=solid;fillColor=#B3B3B3;strokeColor=#36393d;" parent="1" vertex="1">
          <mxGeometry x="1060" y="350" width="20" height="20" as="geometry" />
        </mxCell>
        <mxCell id="eRknMqQtl_QedWEwPYlO-29" value="AWS Lambda&#xa;IAM role" style="shape=image;verticalLabelPosition=bottom;verticalAlign=top;imageAspect=0;aspect=fixed;image=data:image/svg+xml,PD94bWwgdmVyc2lvbj0iMS4wIiBlbmNvZGluZz0iVVRGLTgiPz4KPHN2ZyB3aWR0aD0iNDhweCIgaGVpZ2h0PSI0OHB4IiB2aWV3Qm94PSIwIDAgNDggNDgiIHZlcnNpb249IjEuMSIgeG1sbnM9Imh0dHA6Ly93d3cudzMub3JnLzIwMDAvc3ZnIiB4bWxuczp4bGluaz0iaHR0cDovL3d3dy53My5vcmcvMTk5OS94bGluayI+CiAgICA8dGl0bGU+SWNvbi1SZXNvdXJjZS9TZWN1cml0eS1JZGVudGl0eS1hbmQtQ29tcGxpYW5jZS9SZXNfQVdTLUlkZW50aXR5LUFjY2Vzcy1NYW5hZ2VtZW50X1JvbGVfNDg8L3RpdGxlPgogICAgPGcgaWQ9Ikljb24tUmVzb3VyY2UvU2VjdXJpdHktSWRlbnRpdHktYW5kLUNvbXBsaWFuY2UvUmVzX0FXUy1JZGVudGl0eS1BY2Nlc3MtTWFuYWdlbWVudF9Sb2xlXzQ4IiBzdHJva2U9Im5vbmUiIHN0cm9rZS13aWR0aD0iMSIgZmlsbD0ibm9uZSIgZmlsbC1ydWxlPSJldmVub2RkIj4KICAgICAgICA8cGF0aCBkPSJNNDQuMDgyNywzMi41ODEgQzQzLjkyNjcsMzIuNTkyIDQzLjc2OTcsMzIuNjA0IDQzLjYyMDcsMzIuNjE5IEM0My4wOTg3LDMyLjY2MiA0Mi41NTI3LDMyLjcxNCA0Mi4wMDA3LDMyLjc3MiBMNDEuODMyNywzMi43OSBDNDAuMDY3NywzMi45NzIgMzguMDY5NywzMy4xNzcgMzcuMTE4NywzMy4wNDcgQzM2LjUyNDcsMzIuOTYyIDM1LjQzMDcsMzIuNDg3IDM0LjI3MDcsMzEuOTg0IEMzMi4zMDQ3LDMxLjEzMiAyOS44NTY3LDMwLjA3IDI3LjY0MzcsMjkuOSBDMjQuNTk3NywyOS42NjYgMTkuMzM0NywzMC4yNCAxNS45NDA3LDMxLjgzMSBDMTMuOTc4NywzMS43NDMgMTIuMTU4NywzMS4yMTUgMTAuNzQ0NywzMC4zNDMgQzEwLjczODcsMzAuMDcxIDEwLjczMjcsMjkuNzk5IDEwLjczMjcsMjkuNjk0IEMxMC43MzI3LDI1LjU1OCAxMi42NzA3LDIxLjY3OSAxNi4wNTI3LDE5LjA0NCBDMTguMzQ5NywxNy43MDEgMjAuOTk2NywxNi45OTIgMjMuNzEyNywxNi45OTIgQzI5LjgzMzcsMTYuOTkyIDM1LjI2NTcsMjAuNjA5IDM3LjM4NDcsMjUuOTM0IEwzNi41NzE3LDI1LjkzNCBDMzUuNzU3NywyNS45MzQgMzUuMDc1NywyNi41MSAzNC45MDg3LDI3LjI3NCBDMzQuNzcwNywyNy4yMjIgMzQuNjQ0NywyNy4xNzUgMzQuNDk2NywyNy4xMTggQzMyLjQ2NzcsMjYuMzM1IDI5LjY4MzcsMjUuMjY0IDI2LjQ2NTcsMjUuNDU1IEMyMS43NjA3LDI1LjczMSAxOS40NDU3LDI2LjAxNSAxNy42MjI3LDI2LjUzNSBMMTguMTcxNywyOC40NTkgQzE5LjgzOTcsMjcuOTgyIDIyLjAzOTcsMjcuNzE5IDI2LjU4MjcsMjcuNDUxIEMyOS4zNjY3LDI3LjI5MyAzMS45MTk3LDI4LjI2OSAzMy43NzY3LDI4Ljk4NCBDMzQuMTcxNywyOS4xMzcgMzQuNTI4NywyOS4yNyAzNC44Njc3LDI5LjM5MSBMMzQuODY3NywyOS41OTYgQzM0Ljg2NzcsMzAuNTM1IDM1LjYzMjcsMzEuMyAzNi41NzE3LDMxLjMgTDQwLjIxODcsMzEuMyBDNDEuMTU1NywzMS4zIDQxLjkxOTcsMzAuNTM4IDQxLjkyMjcsMjkuNjAyIEw0Mi4yNzY3LDI5LjU3IEM0Mi44Njk3LDI5LjUxNyA0My40MTQ3LDI5LjQ2NCA0My44NzE3LDI5LjQxOSBMNDQuMDgyNywyOS4zOTggTDQ0LjA4MjcsMzIuNTgxIFogTTkuNzk4NywzNC4yNDkgQzcuMTQ4NywzNC42MTIgNS4wNTY3LDM0LjI4OCA0LjE5MDcsMzMuNzUzIEM0LjcxNTcsMzMuMzgyIDUuOTAwNywzMi44NjMgNi43MzQ3LDMyLjQ5OSBDNy40NTY3LDMyLjE4NCA4LjE4NzcsMzEuODUxIDguODk0NywzMS40OTUgQzEwLjA0ODcsMzIuMzc0IDExLjQ3NzcsMzMuMDMzIDEzLjA1OTcsMzMuNDI2IEMxMi4xNDQ3LDMzLjc5NCAxMS4wMTE3LDM0LjA4NCA5Ljc5ODcsMzQuMjQ5IEw5Ljc5ODcsMzQuMjQ5IFogTTM2Ljg2NzcsMjkuMyBMMzkuOTIyNywyOS4zIEwzOS45MjI3LDI3LjkzNCBMMzYuODY3NywyNy45MzQgTDM2Ljg2NzcsMjkuMyBaIE0yNi41ODU3LDEzIEMzNC45NTM3LDEzIDQxLjk4MTcsMTkuMjk1IDQzLjAxNjcsMjcuNDkyIEM0Mi43Mjg3LDI3LjUyIDQyLjQyNDcsMjcuNTQ5IDQyLjEwMzcsMjcuNTc4IEw0MS45MTg3LDI3LjU5NCBDNDEuODk0NywyNi42NzYgNDEuMTQzNywyNS45MzQgNDAuMjE4NywyNS45MzQgTDM5LjUwNzcsMjUuOTM0IEMzNy4zMDY3LDE5LjQ1NyAzMC45MzE3LDE0Ljk5MiAyMy43MTI3LDE0Ljk5MiBDMjEuMDM4NywxNC45OTIgMTguNDIyNywxNS42MDQgMTYuMDcxNywxNi43NjcgQzE2LjA4ODcsMTYuNzUzIDE2LjEwMjcsMTYuNzM4IDE2LjExNzcsMTYuNzI1IEMxOS4wNTg3LDE0LjMyMyAyMi43NzU3LDEzIDI2LjU4NTcsMTMgTDI2LjU4NTcsMTMgWiBNNDUuNTI2NywyNy43OTQgQzQ1LjM4MTcsMjcuNjYzIDQ1LjIxMDcsMjcuNTY4IDQ1LjAyODcsMjcuNDk2IEM0My45ODI3LDE4LjE4NSAzNi4wNDk3LDExIDI2LjU4NTcsMTEgQzIyLjMxNjcsMTEgMTguMTQ5NywxMi40ODMgMTQuODUzNywxNS4xNzUgQzEwLjUwMDcsMTguNzE5IDguMDA0NywyMy45NyA4LjAwNDcsMjkuNTgxIEM4LjAwNDcsMjkuNjIyIDguMDA3NywyOS42NjMgOC4wMDc3LDI5LjcwNCBDNy4zNDA3LDMwLjAzOSA2LjYzNTcsMzAuMzU5IDUuOTM0NywzMC42NjYgQzMuNzk4NywzMS42IDIuMjU1NywzMi4yNzQgMi4wMjU3LDMzLjQ5MiBDMS45Njc3LDMzLjgwMSAxLjk1NzcsMzQuNDA2IDIuNTQ1NywzNC45OTQgQzMuNTgyNywzNi4wMzEgNS41NzI3LDM2LjQwMyA3LjU5NDcsMzYuNDAzIEM4LjQzNjcsMzYuNDAzIDkuMjgyNywzNi4zMzkgMTAuMDY4NywzNi4yMzEgQzExLjQwNzcsMzYuMDQ5IDEzLjkwNzcsMzUuNTU4IDE1LjYwNDcsMzQuMzE2IEMxOC4yODI3LDMyLjM3NSAyNC4zMzc3LDMxLjY0OSAyNy40OTA3LDMxLjg5NCBDMjkuMzY5NywzMi4wMzkgMzEuNjQ1NywzMy4wMjYgMzMuNDc1NywzMy44MTkgQzM0Ljg3MTcsMzQuNDI2IDM1Ljk3NTcsMzQuOTA0IDM2Ljg0MTcsMzUuMDI3IEMzOC4wMzI3LDM1LjE5IDM5Ljk3NzcsMzQuOTkgNDIuMDM2NywzNC43NzkgTDQyLjIwOTcsMzQuNzYyIEM0Mi43NDc3LDM0LjcwNCA0My4yNzc3LDM0LjY1NCA0My44MDE3LDM0LjYxMSBDNDQuMDE2NywzNC41OSA0NC4yMjk3LDM0LjU3NSA0NC41MTM3LDM0LjU1NSBDNDUuMzkzNywzNC40OTMgNDYuMDgyNywzMy43NTUgNDYuMDgyNywzMi44NzUgTDQ2LjA4MjcsMjkuMDQ2IEM0Ni4wODI3LDI4LjU2OCA0NS44ODA3LDI4LjExMiA0NS41MjY3LDI3Ljc5NCBMNDUuNTI2NywyNy43OTQgWiIgaWQ9IkFXUy1JZGVudGl0eS1hbmQtQWNjZXNzLU1hbmFnZW1lbnRfUm9sZV9SZXNvdXJjZS1JY29uX2xpZ2h0LWJnIiBmaWxsPSIjREQzNDRDIj48L3BhdGg+CiAgICA8L2c+Cjwvc3ZnPg==;fontSize=10;" parent="1" vertex="1">
          <mxGeometry x="480" y="282" width="40" height="40" as="geometry" />
        </mxCell>
        <mxCell id="eRknMqQtl_QedWEwPYlO-31" style="edgeStyle=orthogonalEdgeStyle;rounded=0;orthogonalLoop=1;jettySize=auto;html=1;dashed=1;startArrow=classic;startFill=1;sourcePerimeterSpacing=35;" parent="1" source="ulP-s_4zBE7rIFDbzlDe-18" target="ulP-s_4zBE7rIFDbzlDe-39" edge="1">
          <mxGeometry relative="1" as="geometry">
            <Array as="points">
              <mxPoint x="910" y="600" />
              <mxPoint x="610" y="600" />
            </Array>
          </mxGeometry>
        </mxCell>
      </root>
    </mxGraphModel>
  </diagram>
</mxfile>
